<svg xmlns="http://www.w3.org/2000/svg" xmlns:xlink="http://www.w3.org/1999/xlink" width="500" zoomAndPan="magnify" viewBox="0 0 375 374.999991" height="500" preserveAspectRatio="xMidYMid meet" version="1.0"><path fill="#cfcece" d="M 205.230469 316.679688 C 171.546875 316.679688 139.085938 304.429688 113.820312 282.207031 C 108.863281 277.851562 101.941406 276.316406 91.335938 276.316406 C 83.441406 276.316406 73.503906 277.171875 60.828125 278.339844 C 53.527344 279.015625 43.289062 279.96875 35.167969 280.242188 C 39.070312 276.007812 43.742188 271.351562 47.203125 267.898438 C 64.785156 250.390625 78.675781 236.558594 73.835938 222.105469 C 69.089844 207.929688 66.675781 193.085938 66.675781 177.96875 C 66.675781 101.488281 128.824219 39.257812 205.230469 39.257812 C 281.625 39.257812 343.773438 101.488281 343.773438 177.96875 C 343.773438 254.449219 281.625 316.679688 205.230469 316.679688 Z M 322.335938 60.722656 C 291.054688 29.402344 249.460938 12.167969 205.230469 12.167969 C 160.988281 12.167969 119.398438 29.402344 88.113281 60.722656 C 56.832031 92.039062 39.605469 133.675781 39.605469 177.96875 C 39.605469 194.96875 42.160156 211.691406 47.203125 227.738281 C 44.179688 232.675781 34.277344 242.546875 28.117188 248.6875 C 21.363281 255.402344 14.398438 262.339844 9.472656 268.589844 C 6.121094 272.828125 -4.03125 285.707031 4.113281 297.753906 C 12.042969 309.488281 29.867188 308.417969 63.324219 305.324219 C 74.714844 304.277344 91.621094 302.71875 97.316406 303.753906 C 127.316406 329.582031 165.566406 343.773438 205.230469 343.773438 C 249.460938 343.773438 291.054688 326.535156 322.335938 295.21875 C 353.617188 263.898438 370.847656 222.261719 370.847656 177.96875 C 370.847656 133.675781 353.617188 92.039062 322.335938 60.722656 " fill-opacity="1" fill-rule="nonzero"/><path fill="#cfcece" d="M 179.761719 274.171875 L 230.6875 274.171875 L 230.6875 153.652344 L 179.761719 153.652344 L 179.761719 274.171875 " fill-opacity="1" fill-rule="nonzero"/><path fill="#cfcece" d="M 205.230469 81.707031 C 189.84375 81.707031 177.382812 94.179688 177.382812 109.574219 C 177.382812 124.964844 189.84375 137.449219 205.230469 137.449219 C 220.605469 137.449219 233.066406 124.964844 233.066406 109.574219 C 233.066406 94.179688 220.605469 81.707031 205.230469 81.707031 " fill-opacity="1" fill-rule="nonzero"/></svg>