<svg xmlns="http://www.w3.org/2000/svg" xmlns:xlink="http://www.w3.org/1999/xlink" width="500" zoomAndPan="magnify" viewBox="0 0 375 374.999991" height="500" preserveAspectRatio="xMidYMid meet" version="1.0"><defs><clipPath id="id1"><path d="M 4.601562 0 L 370.601562 0 L 370.601562 366 L 4.601562 366 Z M 4.601562 0 " clip-rule="nonzero"/></clipPath></defs><g clip-path="url(#id1)"><path fill="#cfcece" d="M 354.804688 350.25 C 350.300781 354.824219 342.152344 354.871094 337.597656 350.226562 L 286.988281 299.636719 L 304.238281 282.386719 L 354.828125 332.972656 C 357.136719 335.285156 358.402344 338.335938 358.402344 341.601562 C 358.402344 344.863281 357.136719 347.914062 354.804688 350.25 Z M 283.558594 261.703125 L 295.613281 273.761719 L 278.386719 291.011719 L 266.328125 278.957031 C 272.5 273.640625 278.265625 267.898438 283.558594 261.703125 Z M 16.800781 158.601562 C 16.800781 77.871094 82.472656 12.199219 163.203125 12.199219 C 243.929688 12.199219 309.601562 77.871094 309.601562 158.601562 C 309.601562 239.328125 243.929688 305 163.203125 305 C 82.472656 305 16.800781 239.328125 16.800781 158.601562 Z M 291.207031 252.101562 C 310.410156 225.867188 321.800781 193.53125 321.800781 158.601562 C 321.800781 71.152344 250.652344 0 163.203125 0 C 75.753906 0 4.601562 71.152344 4.601562 158.601562 C 4.601562 246.050781 75.753906 317.199219 163.203125 317.199219 C 198.132812 317.199219 230.46875 305.808594 256.703125 286.605469 L 328.925781 358.804688 C 333.476562 363.449219 339.625 366 346.226562 366 C 352.800781 366 358.949219 363.449219 363.453125 358.851562 C 368.074219 354.253906 370.601562 348.128906 370.601562 341.601562 C 370.601562 335.070312 368.074219 328.945312 363.453125 324.347656 L 291.207031 252.101562 " fill-opacity="1" fill-rule="nonzero"/></g><path fill="#cfcece" d="M 248.601562 164.699219 C 248.601562 168.058594 245.859375 170.800781 242.5 170.800781 C 239.140625 170.800781 236.402344 168.058594 236.402344 164.699219 C 236.402344 161.339844 239.140625 158.601562 242.5 158.601562 C 245.859375 158.601562 248.601562 161.339844 248.601562 164.699219 Z M 199.800781 109.800781 C 199.800781 106.441406 202.542969 103.699219 205.902344 103.699219 C 209.261719 103.699219 212 106.441406 212 109.800781 C 212 113.160156 209.261719 115.898438 205.902344 115.898438 C 202.542969 115.898438 199.800781 113.160156 199.800781 109.800781 Z M 169.300781 146.398438 C 165.941406 146.398438 163.203125 143.660156 163.203125 140.300781 C 163.203125 136.941406 165.941406 134.199219 169.300781 134.199219 C 172.660156 134.199219 175.402344 136.941406 175.402344 140.300781 C 175.402344 143.660156 172.660156 146.398438 169.300781 146.398438 Z M 126.601562 97.601562 C 126.601562 94.238281 129.339844 91.5 132.703125 91.5 C 136.0625 91.5 138.800781 94.238281 138.800781 97.601562 C 138.800781 100.960938 136.0625 103.699219 132.703125 103.699219 C 129.339844 103.699219 126.601562 100.960938 126.601562 97.601562 Z M 205.902344 91.5 C 195.796875 91.5 187.601562 99.695312 187.601562 109.800781 C 187.601562 112.039062 188.054688 114.160156 188.792969 116.136719 L 178.570312 124.621094 C 175.855469 123 172.683594 122 169.300781 122 C 166.964844 122 164.773438 122.476562 162.726562 123.285156 L 148.523438 106.628906 C 150.046875 103.960938 151 100.910156 151 97.601562 C 151 87.496094 142.804688 79.300781 132.703125 79.300781 C 122.597656 79.300781 114.402344 87.496094 114.402344 97.601562 C 114.402344 107.703125 122.597656 115.898438 132.703125 115.898438 C 135.035156 115.898438 137.230469 115.421875 139.277344 114.613281 L 153.480469 131.269531 C 151.953125 133.9375 151 136.988281 151 140.300781 C 151 150.402344 159.199219 158.601562 169.300781 158.601562 C 179.40625 158.601562 187.601562 150.402344 187.601562 140.300781 C 187.601562 138.058594 187.148438 135.9375 186.410156 133.960938 L 196.632812 125.480469 C 199.347656 127.097656 202.519531 128.101562 205.902344 128.101562 C 207.449219 128.101562 208.902344 127.863281 210.332031 127.503906 L 227.894531 153.785156 C 225.605469 156.835938 224.203125 160.601562 224.203125 164.699219 C 224.203125 174.804688 232.398438 183 242.5 183 C 252.605469 183 260.800781 174.804688 260.800781 164.699219 C 260.800781 154.597656 252.605469 146.398438 242.5 146.398438 C 240.953125 146.398438 239.5 146.636719 238.070312 146.996094 L 220.507812 120.714844 C 222.796875 117.664062 224.203125 113.898438 224.203125 109.800781 C 224.203125 99.695312 216.003906 91.5 205.902344 91.5 " fill-opacity="1" fill-rule="nonzero"/><path fill="#cfcece" d="M 195.15625 28.234375 C 191.867188 27.425781 188.578125 29.425781 187.769531 32.691406 C 186.980469 35.980469 188.984375 39.292969 192.246094 40.078125 C 246.980469 53.445312 285.203125 102.175781 285.203125 158.601562 C 285.203125 183.382812 277.742188 206.421875 264.972656 225.699219 L 248.601562 225.699219 L 248.601562 207.398438 C 248.601562 204.039062 245.859375 201.300781 242.5 201.300781 C 239.117188 201.300781 236.402344 204.039062 236.402344 207.398438 L 236.402344 225.699219 L 212 225.699219 L 212 152.5 C 212 149.140625 209.261719 146.398438 205.902344 146.398438 C 202.542969 146.398438 199.800781 149.140625 199.800781 152.5 L 199.800781 225.699219 L 175.402344 225.699219 L 175.402344 183 C 175.402344 179.640625 172.660156 176.898438 169.300781 176.898438 C 165.941406 176.898438 163.203125 179.640625 163.203125 183 L 163.203125 225.699219 L 138.800781 225.699219 L 138.800781 140.300781 C 138.800781 136.941406 136.0625 134.199219 132.703125 134.199219 C 129.339844 134.199219 126.601562 136.941406 126.601562 140.300781 L 126.601562 225.699219 L 102.203125 225.699219 L 102.203125 79.300781 C 102.203125 75.941406 99.460938 73.199219 96.101562 73.199219 C 92.742188 73.199219 90 75.941406 90 79.300781 L 90 225.699219 C 86.640625 225.699219 83.902344 228.441406 83.902344 231.800781 C 83.902344 235.160156 86.640625 237.898438 90 237.898438 C 90 241.257812 92.742188 244 96.101562 244 C 99.460938 244 102.203125 241.257812 102.203125 237.898438 L 255.726562 237.898438 C 233.328125 263.992188 200.207031 280.601562 163.203125 280.601562 C 95.933594 280.601562 41.203125 225.867188 41.203125 158.601562 C 41.203125 91.332031 95.933594 36.601562 163.203125 36.601562 C 166.5625 36.601562 169.300781 33.859375 169.300781 30.5 C 169.300781 27.140625 166.5625 24.398438 163.203125 24.398438 C 89.191406 24.398438 29 84.589844 29 158.601562 C 29 232.609375 89.191406 292.800781 163.203125 292.800781 C 237.210938 292.800781 297.402344 232.609375 297.402344 158.601562 C 297.402344 96.550781 255.34375 42.9375 195.15625 28.234375 " fill-opacity="1" fill-rule="nonzero"/></svg>