<svg xmlns="http://www.w3.org/2000/svg" xmlns:xlink="http://www.w3.org/1999/xlink" width="500" zoomAndPan="magnify" viewBox="0 0 375 374.999991" height="500" preserveAspectRatio="xMidYMid meet" version="1.0"><defs><clipPath id="id1"><path d="M 149.691406 155.222656 L 253.898438 155.222656 L 253.898438 365.105469 L 149.691406 365.105469 Z M 149.691406 155.222656 " clip-rule="nonzero"/></clipPath><clipPath id="id2"><path d="M 202 9.609375 L 374.785156 9.609375 L 374.785156 364.273438 L 202 364.273438 Z M 202 9.609375 " clip-rule="nonzero"/></clipPath></defs><path fill="#141418" d="M 10.652344 223.941406 C 11.589844 220.382812 15.023438 212.078125 27.042969 193.742188 C 33.804688 183.433594 40.792969 173.757812 44.09375 169.257812 C 45.195312 170.421875 46.496094 171.398438 47.941406 172.132812 C 45.019531 176.972656 38.867188 186.992188 32.078125 197.0625 C 19.863281 215.175781 13.5625 221.636719 10.652344 223.941406 Z M 34.59375 121.96875 C 26.3125 101.753906 24.4375 92.929688 24.136719 89.230469 C 26.578125 91.984375 31.578125 99.457031 40.152344 119.632812 C 44.65625 130.242188 48.589844 140.710938 50.644531 146.316406 C 49.039062 146.742188 47.542969 147.449219 46.21875 148.382812 C 43.726562 143.054688 39.015625 132.769531 34.59375 121.96875 Z M 59.167969 162.941406 C 58.808594 163.246094 58.503906 163.609375 58.273438 164.015625 C 57.210938 165.023438 55.78125 165.648438 54.203125 165.648438 C 50.945312 165.648438 48.289062 162.996094 48.289062 159.738281 C 48.289062 156.480469 50.945312 153.832031 54.203125 153.832031 C 57.464844 153.832031 60.117188 156.480469 60.117188 159.738281 C 60.117188 160.921875 59.765625 162.019531 59.167969 162.941406 Z M 98.113281 161.480469 C 119.835938 164.15625 128.464844 166.839844 131.839844 168.390625 C 128.242188 169.167969 119.273438 169.875 97.46875 167.472656 C 85.011719 166.101562 73.019531 164.222656 67.628906 163.335938 C 67.9375 162.1875 68.105469 160.984375 68.105469 159.738281 C 68.105469 159.355469 68.082031 158.976562 68.054688 158.601562 C 73.390625 158.980469 85.566406 159.933594 98.113281 161.480469 Z M 72.535156 355.9375 C 72.460938 356.015625 72.382812 356.015625 72.355469 356.015625 L 43.332031 356.015625 C 43.304688 356.015625 43.226562 356.015625 43.152344 355.9375 C 43.078125 355.859375 43.085938 355.78125 43.085938 355.75 L 56.976562 173.351562 C 57.425781 173.257812 57.863281 173.144531 58.296875 173.011719 L 72.601562 355.75 C 72.601562 355.78125 72.609375 355.859375 72.535156 355.9375 Z M 47.898438 187.390625 L 35.125 355.148438 C 34.953125 357.421875 35.742188 359.6875 37.296875 361.363281 C 38.847656 363.035156 41.050781 363.996094 43.332031 363.996094 L 72.355469 363.996094 C 74.640625 363.996094 76.84375 363.035156 78.398438 361.355469 C 79.953125 359.675781 80.738281 357.410156 80.5625 355.128906 L 66.160156 171.179688 C 71.992188 172.140625 85.808594 174.308594 99.636719 175.726562 C 108.535156 176.640625 116.019531 177.101562 121.949219 177.101562 C 123.167969 177.101562 124.324219 177.082031 125.410156 177.042969 C 132.3125 176.792969 140.386719 175.761719 141.535156 169.925781 C 141.882812 168.160156 141.425781 166.34375 140.246094 164.8125 C 137.792969 161.636719 130.917969 157.492188 99.226562 153.578125 C 82.25 151.480469 65.894531 150.453125 65.730469 150.445312 C 65.34375 150.417969 64.964844 150.457031 64.601562 150.535156 C 63.167969 148.921875 61.363281 147.644531 59.324219 146.832031 C 57.90625 142.875 52.519531 128.0625 46.296875 113.707031 C 42.007812 103.820312 38.15625 96.046875 34.835938 90.601562 C 31.242188 84.707031 26.394531 78.179688 20.738281 80.03125 C 19.023438 80.589844 17.664062 81.878906 16.90625 83.65625 C 15.332031 87.347656 15.078125 95.367188 27.164062 124.898438 C 33.636719 140.71875 40.742188 155.476562 40.8125 155.625 C 40.835938 155.671875 40.867188 155.710938 40.890625 155.757812 C 40.511719 157.019531 40.304688 158.355469 40.304688 159.738281 C 40.304688 160.199219 40.328125 160.652344 40.375 161.097656 C 40.113281 161.308594 39.871094 161.546875 39.660156 161.828125 C 39.550781 161.972656 28.554688 176.65625 18.699219 191.933594 C 12.855469 200.988281 8.53125 208.511719 5.847656 214.292969 C 2.941406 220.554688 0.203125 228.210938 4.886719 231.882812 C 5.976562 232.734375 7.300781 233.175781 8.714844 233.175781 C 9.148438 233.175781 9.589844 233.132812 10.035156 233.050781 C 13.980469 232.304688 20.792969 228.058594 38.644531 201.601562 C 41.980469 196.660156 45.160156 191.726562 47.898438 187.390625 " fill-opacity="1" fill-rule="nonzero"/><g clip-path="url(#id1)"><path fill="#141418" d="M 170.152344 239.890625 C 174.511719 233.265625 178.957031 227.058594 181.5 223.574219 C 181.867188 223.886719 182.257812 224.171875 182.660156 224.433594 C 180.421875 228.117188 176.421875 234.589844 172.015625 241.144531 C 166.316406 249.628906 162.394531 254.621094 159.773438 257.5625 C 161.445312 254.003906 164.515625 248.449219 170.152344 239.890625 Z M 168.785156 168.292969 C 170.816406 171.65625 173.734375 177.296875 177.71875 186.734375 C 180.632812 193.636719 183.199219 200.394531 184.726562 204.53125 C 184.257812 204.714844 183.800781 204.921875 183.363281 205.160156 C 181.511719 201.171875 178.507812 194.554688 175.640625 187.585938 C 171.75 178.136719 169.773438 172.105469 168.785156 168.292969 Z M 240.265625 220.746094 C 236.335938 220.867188 229.980469 220.648438 219.796875 219.507812 C 211.726562 218.605469 204.011719 217.425781 199.808594 216.746094 C 199.882812 216.285156 199.921875 215.816406 199.9375 215.335938 C 204.152344 215.652344 211.945312 216.292969 220.039062 217.273438 C 230.207031 218.507812 236.449219 219.742188 240.265625 220.746094 Z M 200.910156 357.046875 C 200.835938 357.125 200.757812 357.125 200.726562 357.125 L 182.03125 357.125 C 182.003906 357.125 181.921875 357.125 181.851562 357.046875 C 181.777344 356.96875 181.785156 356.890625 181.785156 356.863281 L 191.246094 232.609375 L 200.972656 356.863281 C 200.976562 356.890625 200.984375 356.96875 200.910156 357.046875 Z M 191.511719 216.640625 C 191.261719 216.875 191.042969 217.140625 190.859375 217.429688 C 190.289062 217.933594 189.542969 218.238281 188.726562 218.238281 C 186.941406 218.238281 185.492188 216.789062 185.492188 215.007812 C 185.492188 213.222656 186.941406 211.773438 188.726562 211.773438 C 190.507812 211.773438 191.960938 213.222656 191.960938 215.007812 C 191.960938 215.605469 191.792969 216.160156 191.511719 216.640625 Z M 152.078125 268.488281 C 153.066406 269.261719 154.261719 269.664062 155.53125 269.664062 C 155.914062 269.664062 156.308594 269.625 156.703125 269.550781 C 159.976562 268.933594 165.097656 265.667969 178.269531 246.152344 C 179.816406 243.859375 181.320312 241.566406 182.722656 239.390625 L 173.824219 356.253906 C 173.648438 358.53125 174.441406 360.796875 175.996094 362.472656 C 177.546875 364.144531 179.746094 365.105469 182.03125 365.105469 L 200.726562 365.105469 C 203.015625 365.105469 205.21875 364.144531 206.773438 362.464844 C 208.324219 360.785156 209.113281 358.519531 208.933594 356.238281 L 198.632812 224.636719 C 203.449219 225.414062 212.601562 226.804688 221.761719 227.742188 C 228.289062 228.414062 233.789062 228.75 238.15625 228.75 C 239.054688 228.75 239.910156 228.734375 240.714844 228.707031 C 244.207031 228.582031 252.386719 228.289062 253.5 222.648438 C 253.8125 221.046875 253.40625 219.414062 252.351562 218.046875 C 250.316406 215.410156 245.085938 212.328125 221.703125 209.441406 C 209.289062 207.90625 197.320312 207.15625 197.203125 207.148438 C 197.039062 207.136719 196.878906 207.140625 196.71875 207.148438 C 195.75 206.164062 194.597656 205.355469 193.320312 204.78125 C 192.082031 201.34375 188.292969 191.019531 183.945312 180.992188 C 180.800781 173.734375 177.960938 168.019531 175.515625 164.003906 C 173.699219 161.023438 169.441406 154.035156 163.972656 155.828125 C 162.421875 156.332031 161.195312 157.488281 160.519531 159.074219 C 159.214844 162.140625 159.082031 168.207031 168 189.996094 C 172.332031 200.585938 177.046875 210.515625 177.859375 212.210938 C 177.628906 213.105469 177.503906 214.042969 177.503906 215.007812 C 177.503906 215.191406 177.511719 215.378906 177.519531 215.5625 C 177.425781 215.664062 177.335938 215.769531 177.25 215.882812 C 177.171875 215.988281 169.125 226.730469 161.914062 237.910156 C 157.625 244.558594 154.445312 250.089844 152.464844 254.355469 C 150.992188 257.523438 147.550781 264.941406 152.078125 268.488281 " fill-opacity="1" fill-rule="nonzero"/></g><g clip-path="url(#id2)"><path fill="#141418" d="M 338.109375 157 C 328.929688 143.429688 320.609375 129.804688 317.167969 124.085938 C 319.660156 123.027344 321.832031 121.371094 323.515625 119.296875 C 327.339844 124.488281 336.964844 137.726562 346.140625 151.773438 C 364.214844 179.433594 366.664062 188.847656 366.832031 191.71875 C 364.242188 190.351562 356.542969 184.25 338.109375 157 Z M 325.746094 356.125 C 325.671875 356.203125 325.59375 356.203125 325.566406 356.203125 L 286.832031 356.203125 C 286.800781 356.203125 286.722656 356.203125 286.652344 356.125 C 286.578125 356.046875 286.582031 355.96875 286.585938 355.9375 L 304.726562 124.230469 C 305.84375 124.675781 307.019531 125 308.238281 125.191406 L 325.8125 355.9375 C 325.8125 355.96875 325.820312 356.046875 325.746094 356.125 Z M 210.761719 120.109375 C 213.152344 118.421875 222.085938 114.328125 254.75 110.253906 C 271.839844 108.125 288.550781 106.867188 294.539062 106.449219 C 294.414062 107.273438 294.34375 108.121094 294.34375 108.976562 C 294.34375 110.839844 294.664062 112.628906 295.238281 114.300781 C 289.050781 115.328125 272.679688 117.945312 255.777344 119.777344 C 222.902344 123.34375 213.398438 121.257812 210.761719 120.109375 Z M 310.765625 100.550781 C 315.414062 100.550781 319.199219 104.332031 319.199219 108.976562 C 319.199219 113.625 315.414062 117.40625 310.765625 117.40625 C 308.457031 117.40625 306.363281 116.472656 304.839844 114.96875 C 304.578125 114.460938 304.207031 114.015625 303.757812 113.664062 C 302.859375 112.324219 302.332031 110.710938 302.332031 108.976562 C 302.332031 104.332031 306.113281 100.550781 310.765625 100.550781 Z M 327.769531 57.539062 C 340.746094 27.121094 347.222656 19.851562 349.515625 18.113281 C 349.820312 21.023438 349.023438 30.8125 336.601562 61.269531 C 330.628906 75.910156 324.171875 89.90625 321.167969 96.296875 C 319.101562 94.597656 316.609375 93.398438 313.882812 92.871094 C 316.367188 86.046875 321.671875 71.835938 327.769531 57.539062 Z M 354.453125 149.910156 C 342.109375 130.777344 328.335938 112.390625 328.195312 112.207031 C 327.871094 111.773438 327.472656 111.425781 327.035156 111.164062 C 327.128906 110.449219 327.183594 109.71875 327.183594 108.976562 C 327.183594 107.195312 326.894531 105.476562 326.363281 103.867188 C 326.46875 103.710938 326.566406 103.546875 326.648438 103.375 C 326.738281 103.191406 335.636719 84.707031 343.746094 64.890625 C 348.53125 53.191406 352.121094 43.300781 354.414062 35.492188 C 358.53125 21.460938 357.757812 16.601562 356.621094 13.9375 C 355.550781 11.429688 353.75 10.386719 352.429688 9.953125 C 346.011719 7.851562 340.242188 15.703125 335.929688 22.777344 C 331.792969 29.570312 326.976562 39.277344 321.617188 51.640625 C 313.570312 70.199219 306.640625 89.367188 305.144531 93.5625 C 302.347656 94.582031 299.910156 96.339844 298.058594 98.597656 C 297.535156 98.394531 296.964844 98.296875 296.367188 98.332031 C 296.164062 98.34375 275.679688 99.628906 254.417969 102.257812 C 241.863281 103.804688 231.472656 105.515625 223.535156 107.339844 C 209.273438 110.613281 205.410156 113.667969 203.640625 115.960938 C 201.972656 118.121094 201.945312 120.195312 202.214844 121.558594 C 203.519531 128.179688 213.195312 129.371094 221.480469 129.667969 C 222.835938 129.714844 224.269531 129.738281 225.789062 129.738281 C 233.191406 129.738281 242.542969 129.164062 253.671875 128.023438 C 272.105469 126.132812 290.523438 123.175781 296.882812 122.113281 L 278.625 355.316406 C 278.445312 357.59375 279.234375 359.863281 280.789062 361.542969 C 282.339844 363.222656 284.542969 364.183594 286.832031 364.183594 L 325.566406 364.183594 C 327.847656 364.183594 330.050781 363.222656 331.601562 361.550781 C 333.15625 359.875 333.949219 357.609375 333.773438 355.335938 L 317.351562 139.644531 C 321.210938 145.828125 326.027344 153.367188 331.125 160.921875 C 338.195312 171.402344 344.429688 179.882812 349.652344 186.125 C 359.039062 197.347656 363.511719 199.402344 366.359375 199.941406 C 366.890625 200.042969 367.394531 200.085938 367.859375 200.085938 C 369.75 200.085938 371.125 199.363281 372 198.675781 C 377.316406 194.511719 373.992188 185.355469 370.503906 177.839844 C 367.15625 170.628906 361.753906 161.230469 354.453125 149.910156 " fill-opacity="1" fill-rule="nonzero"/></g></svg>