<svg xmlns="http://www.w3.org/2000/svg" xmlns:xlink="http://www.w3.org/1999/xlink" width="500" zoomAndPan="magnify" viewBox="0 0 375 374.999991" height="500" preserveAspectRatio="xMidYMid meet" version="1.0"><path fill="#8bd2f6" d="M 375.089844 187.574219 C 375.089844 190.640625 375.011719 193.710938 374.863281 196.773438 C 374.710938 199.839844 374.484375 202.898438 374.183594 205.953125 C 373.882812 209.007812 373.507812 212.050781 373.058594 215.085938 C 372.609375 218.125 372.082031 221.144531 371.484375 224.15625 C 370.886719 227.164062 370.214844 230.160156 369.46875 233.136719 C 368.722656 236.113281 367.90625 239.070312 367.015625 242.007812 C 366.121094 244.941406 365.160156 247.855469 364.125 250.746094 C 363.09375 253.632812 361.988281 256.496094 360.8125 259.332031 C 359.640625 262.167969 358.398438 264.972656 357.085938 267.746094 C 355.773438 270.519531 354.394531 273.261719 352.945312 275.96875 C 351.5 278.671875 349.988281 281.34375 348.410156 283.976562 C 346.832031 286.609375 345.191406 289.199219 343.484375 291.75 C 341.78125 294.300781 340.015625 296.8125 338.1875 299.277344 C 336.359375 301.742188 334.472656 304.160156 332.523438 306.53125 C 330.578125 308.902344 328.574219 311.226562 326.511719 313.5 C 324.453125 315.773438 322.335938 317.996094 320.167969 320.167969 C 317.996094 322.335938 315.773438 324.453125 313.5 326.511719 C 311.226562 328.574219 308.902344 330.578125 306.53125 332.523438 C 304.160156 334.472656 301.742188 336.359375 299.277344 338.1875 C 296.8125 340.015625 294.300781 341.78125 291.75 343.484375 C 289.199219 345.191406 286.609375 346.832031 283.976562 348.410156 C 281.34375 349.988281 278.671875 351.5 275.96875 352.945312 C 273.261719 354.394531 270.519531 355.773438 267.746094 357.085938 C 264.972656 358.398438 262.167969 359.640625 259.332031 360.8125 C 256.496094 361.988281 253.632812 363.09375 250.746094 364.125 C 247.855469 365.160156 244.941406 366.121094 242.007812 367.015625 C 239.070312 367.90625 236.113281 368.722656 233.136719 369.46875 C 230.160156 370.214844 227.164062 370.886719 224.15625 371.484375 C 221.144531 372.082031 218.125 372.609375 215.085938 373.058594 C 212.050781 373.507812 209.007812 373.882812 205.953125 374.183594 C 202.898438 374.484375 199.839844 374.710938 196.773438 374.863281 C 193.710938 375.011719 190.640625 375.089844 187.574219 375.089844 C 184.503906 375.089844 181.4375 375.011719 178.371094 374.863281 C 175.308594 374.710938 172.246094 374.484375 169.195312 374.183594 C 166.140625 373.882812 163.09375 373.507812 160.058594 373.058594 C 157.023438 372.609375 154 372.082031 150.992188 371.484375 C 147.980469 370.886719 144.988281 370.214844 142.011719 369.46875 C 139.035156 368.722656 136.078125 367.90625 133.140625 367.015625 C 130.203125 366.121094 127.292969 365.160156 124.402344 364.125 C 121.511719 363.09375 118.648438 361.988281 115.816406 360.8125 C 112.980469 359.640625 110.175781 358.398438 107.402344 357.085938 C 104.625 355.773438 101.886719 354.394531 99.179688 352.945312 C 96.472656 351.5 93.804688 349.988281 91.171875 348.410156 C 88.539062 346.832031 85.949219 345.191406 83.394531 343.484375 C 80.84375 341.78125 78.335938 340.015625 75.871094 338.1875 C 73.40625 336.359375 70.988281 334.472656 68.617188 332.523438 C 66.242188 330.578125 63.921875 328.574219 61.644531 326.511719 C 59.371094 324.453125 57.152344 322.335938 54.980469 320.167969 C 52.8125 317.996094 50.695312 315.773438 48.632812 313.5 C 46.574219 311.226562 44.570312 308.902344 42.621094 306.53125 C 40.675781 304.160156 38.789062 301.742188 36.960938 299.277344 C 35.132812 296.8125 33.367188 294.300781 31.660156 291.75 C 29.957031 289.199219 28.316406 286.609375 26.738281 283.976562 C 25.160156 281.34375 23.648438 278.671875 22.199219 275.96875 C 20.753906 273.261719 19.375 270.519531 18.0625 267.746094 C 16.75 264.972656 15.507812 262.167969 14.332031 259.332031 C 13.15625 256.496094 12.054688 253.632812 11.019531 250.746094 C 9.984375 247.855469 9.023438 244.941406 8.132812 242.007812 C 7.242188 239.070312 6.425781 236.113281 5.679688 233.136719 C 4.933594 230.160156 4.261719 227.164062 3.660156 224.15625 C 3.0625 221.144531 2.539062 218.125 2.089844 215.085938 C 1.636719 212.050781 1.261719 209.007812 0.960938 205.953125 C 0.660156 202.898438 0.433594 199.839844 0.285156 196.773438 C 0.132812 193.710938 0.0585938 190.640625 0.0585938 187.574219 C 0.0585938 184.503906 0.132812 181.4375 0.285156 178.371094 C 0.433594 175.308594 0.660156 172.246094 0.960938 169.195312 C 1.261719 166.140625 1.636719 163.09375 2.089844 160.058594 C 2.539062 157.023438 3.0625 154 3.660156 150.992188 C 4.261719 147.980469 4.933594 144.988281 5.679688 142.011719 C 6.425781 139.035156 7.242188 136.078125 8.132812 133.140625 C 9.023438 130.203125 9.984375 127.292969 11.019531 124.402344 C 12.054688 121.511719 13.15625 118.648438 14.332031 115.816406 C 15.507812 112.980469 16.75 110.175781 18.0625 107.402344 C 19.375 104.625 20.753906 101.886719 22.199219 99.179688 C 23.648438 96.472656 25.160156 93.804688 26.738281 91.171875 C 28.316406 88.539062 29.957031 85.949219 31.660156 83.394531 C 33.367188 80.84375 35.132812 78.335938 36.960938 75.871094 C 38.789062 73.40625 40.675781 70.988281 42.621094 68.617188 C 44.570312 66.242188 46.574219 63.921875 48.632812 61.644531 C 50.695312 59.371094 52.8125 57.152344 54.980469 54.980469 C 57.152344 52.8125 59.371094 50.695312 61.644531 48.632812 C 63.921875 46.574219 66.242188 44.570312 68.617188 42.621094 C 70.988281 40.675781 73.40625 38.789062 75.871094 36.960938 C 78.335938 35.132812 80.84375 33.367188 83.394531 31.660156 C 85.949219 29.957031 88.539062 28.316406 91.171875 26.738281 C 93.804688 25.160156 96.472656 23.648438 99.179688 22.199219 C 101.886719 20.753906 104.625 19.375 107.402344 18.0625 C 110.175781 16.75 112.980469 15.507812 115.816406 14.332031 C 118.648438 13.15625 121.511719 12.054688 124.402344 11.019531 C 127.292969 9.984375 130.203125 9.023438 133.140625 8.132812 C 136.078125 7.242188 139.035156 6.425781 142.011719 5.679688 C 144.988281 4.933594 147.980469 4.261719 150.992188 3.660156 C 154 3.0625 157.023438 2.539062 160.058594 2.089844 C 163.09375 1.636719 166.140625 1.261719 169.195312 0.960938 C 172.246094 0.660156 175.308594 0.433594 178.371094 0.285156 C 181.4375 0.132812 184.503906 0.0585938 187.574219 0.0585938 C 190.640625 0.0585938 193.710938 0.132812 196.773438 0.285156 C 199.839844 0.433594 202.898438 0.660156 205.953125 0.960938 C 209.007812 1.261719 212.050781 1.636719 215.085938 2.089844 C 218.125 2.539062 221.144531 3.0625 224.15625 3.660156 C 227.164062 4.261719 230.160156 4.933594 233.136719 5.679688 C 236.113281 6.425781 239.070312 7.242188 242.007812 8.132812 C 244.941406 9.023438 247.855469 9.984375 250.746094 11.019531 C 253.632812 12.054688 256.496094 13.15625 259.332031 14.332031 C 262.167969 15.507812 264.972656 16.75 267.746094 18.0625 C 270.519531 19.375 273.261719 20.753906 275.96875 22.199219 C 278.671875 23.648438 281.34375 25.160156 283.976562 26.738281 C 286.609375 28.316406 289.199219 29.957031 291.75 31.660156 C 294.300781 33.367188 296.8125 35.132812 299.277344 36.960938 C 301.742188 38.789062 304.160156 40.675781 306.53125 42.621094 C 308.902344 44.570312 311.226562 46.574219 313.5 48.632812 C 315.773438 50.695312 317.996094 52.8125 320.167969 54.980469 C 322.335938 57.152344 324.453125 59.371094 326.511719 61.644531 C 328.574219 63.921875 330.578125 66.242188 332.523438 68.617188 C 334.472656 70.988281 336.359375 73.40625 338.1875 75.871094 C 340.015625 78.335938 341.78125 80.84375 343.484375 83.394531 C 345.191406 85.949219 346.832031 88.539062 348.410156 91.171875 C 349.988281 93.804688 351.5 96.472656 352.945312 99.179688 C 354.394531 101.886719 355.773438 104.625 357.085938 107.402344 C 358.398438 110.175781 359.640625 112.980469 360.8125 115.816406 C 361.988281 118.648438 363.09375 121.511719 364.125 124.402344 C 365.160156 127.292969 366.121094 130.203125 367.015625 133.140625 C 367.90625 136.078125 368.722656 139.035156 369.46875 142.011719 C 370.214844 144.988281 370.886719 147.980469 371.484375 150.992188 C 372.082031 154 372.609375 157.023438 373.058594 160.058594 C 373.507812 163.09375 373.882812 166.140625 374.183594 169.195312 C 374.484375 172.246094 374.710938 175.308594 374.863281 178.371094 C 375.011719 181.4375 375.089844 184.503906 375.089844 187.574219 Z M 375.089844 187.574219 " fill-opacity="1" fill-rule="nonzero"/><path fill="#7da34f" d="M 195.554688 232.496094 C 142.839844 251.519531 91.183594 276.949219 46.921875 311.582031 C 81.277344 350.523438 131.550781 375.089844 187.558594 375.089844 C 287.0625 375.089844 368.445312 297.589844 374.675781 199.65625 C 313.90625 198.011719 253.429688 211.609375 195.554688 232.496094 Z M 195.554688 232.496094 " fill-opacity="1" fill-rule="nonzero"/><path fill="#729549" d="M 247.726562 253.210938 C 250.621094 209.992188 330.046875 212.402344 373.089844 214.902344 C 373.824219 209.886719 374.367188 204.800781 374.691406 199.671875 C 313.90625 198.023438 253.429688 211.609375 195.570312 232.496094 C 142.855469 251.519531 91.199219 276.949219 46.9375 311.582031 C 81.292969 350.523438 131.566406 375.089844 187.574219 375.089844 C 226.894531 375.089844 263.382812 362.976562 293.515625 342.292969 C 289.8125 334.089844 244.992188 294.03125 247.726562 253.210938 Z M 247.726562 253.210938 " fill-opacity="1" fill-rule="nonzero"/><path fill="#b8d15c" d="M 273.832031 346.863281 C 247.519531 298.425781 209.328125 257.3125 160.054688 231.835938 C 110.308594 206.109375 55.199219 198.523438 0.148438 193.054688 C 3.042969 294.074219 85.847656 375.089844 187.574219 375.089844 C 219.882812 375.089844 250.300781 366.914062 276.832031 352.523438 C 275.847656 350.628906 274.847656 348.746094 273.832031 346.863281 Z M 273.832031 346.863281 " fill-opacity="1" fill-rule="nonzero"/><path fill="#9cc549" d="M 67.253906 220.339844 C 120.277344 233.671875 173.003906 261.175781 207.125 304.878906 C 221.707031 323.550781 232.570312 345.144531 237.539062 368.339844 C 251.34375 364.535156 264.515625 359.210938 276.847656 352.523438 C 275.863281 350.628906 274.863281 348.746094 273.847656 346.878906 C 247.535156 298.441406 209.34375 257.324219 160.070312 231.851562 C 110.324219 206.125 55.214844 198.539062 0.160156 193.070312 C 0.339844 199.203125 0.808594 205.242188 1.558594 211.210938 C 23.695312 211.753906 45.804688 214.945312 67.253906 220.339844 Z M 67.253906 220.339844 " fill-opacity="1" fill-rule="nonzero"/><path fill="#ffffff" d="M 280.097656 67.871094 C 280.097656 60.445312 274.820312 54.257812 267.820312 52.847656 C 267.1875 44.46875 260.207031 37.867188 251.667969 37.867188 C 247.375 37.867188 243.476562 39.527344 240.582031 42.25 C 237.421875 39.894531 233.511719 38.515625 229.261719 38.515625 C 220.355469 38.515625 212.886719 44.644531 210.828125 52.921875 C 209.742188 52.683594 208.625 52.554688 207.460938 52.554688 C 198.996094 52.554688 192.144531 59.417969 192.144531 67.871094 C 192.144531 76.074219 198.597656 82.777344 206.714844 83.171875 L 206.714844 83.1875 L 266.132812 83.1875 L 266.132812 83.128906 C 273.953125 82.4375 280.097656 75.867188 280.097656 67.871094 Z M 280.097656 67.871094 " fill-opacity="0.4196" fill-rule="nonzero"/><path fill="#ffffff" d="M 171.328125 86.65625 C 171.328125 79.234375 166.050781 73.042969 159.054688 71.632812 C 158.421875 63.253906 151.441406 56.652344 142.898438 56.652344 C 138.605469 56.652344 134.710938 58.316406 131.816406 61.035156 C 128.65625 58.683594 124.746094 57.300781 120.496094 57.300781 C 111.589844 57.300781 104.121094 63.429688 102.0625 71.707031 C 100.976562 71.472656 99.859375 71.339844 98.695312 71.339844 C 90.230469 71.339844 83.378906 78.203125 83.378906 86.65625 C 83.378906 94.859375 89.832031 101.5625 97.945312 101.960938 L 97.945312 101.976562 L 157.363281 101.976562 L 157.363281 101.914062 C 165.199219 101.226562 171.328125 94.652344 171.328125 86.65625 Z M 171.328125 86.65625 " fill-opacity="0.4196" fill-rule="nonzero"/><path fill="#ffffff" d="M 335.664062 120.011719 L 334.648438 120.011719 C 334.457031 110.675781 323.8125 107.664062 319.449219 111.015625 C 318.816406 102.636719 311.832031 96.035156 303.292969 96.035156 C 299 96.035156 295.105469 97.695312 292.207031 100.417969 C 289.046875 98.066406 285.136719 96.683594 280.890625 96.683594 C 271.980469 96.683594 264.515625 102.8125 262.457031 111.089844 C 261.367188 110.855469 260.25 110.722656 259.089844 110.722656 C 250.621094 110.722656 243.773438 117.585938 243.773438 126.039062 C 243.773438 134.242188 250.226562 140.945312 258.339844 141.339844 L 258.339844 141.355469 L 335.664062 141.355469 C 341.558594 141.355469 346.335938 136.578125 346.335938 130.683594 C 346.335938 124.789062 341.558594 120.011719 335.664062 120.011719 Z M 335.664062 120.011719 " fill-opacity="0.4196" fill-rule="nonzero"/><path fill="#fff6a0" d="M 38.042969 260.882812 C 40.882812 260.882812 40.882812 256.472656 38.042969 256.472656 C 35.207031 256.472656 35.207031 260.882812 38.042969 260.882812 Z M 38.042969 260.882812 " fill-opacity="1" fill-rule="nonzero"/><path fill="#fff6a0" d="M 36.734375 285.652344 C 39.574219 285.652344 39.574219 281.242188 36.734375 281.242188 C 33.898438 281.242188 33.898438 285.652344 36.734375 285.652344 Z M 36.734375 285.652344 " fill-opacity="1" fill-rule="nonzero"/><path fill="#fff6a0" d="M 56.300781 269.511719 C 56.082031 269.511719 55.859375 269.511719 55.65625 269.511719 C 54.507812 269.511719 53.390625 270.527344 53.449219 271.71875 C 53.507812 272.90625 54.417969 273.921875 55.65625 273.921875 C 55.875 273.921875 56.09375 273.921875 56.300781 273.921875 C 57.449219 273.921875 58.566406 272.90625 58.507812 271.71875 C 58.449219 270.511719 57.535156 269.511719 56.300781 269.511719 Z M 56.300781 269.511719 " fill-opacity="1" fill-rule="nonzero"/><path fill="#fff6a0" d="M 52.390625 299.339844 C 55.226562 299.339844 55.226562 294.929688 52.390625 294.929688 C 49.554688 294.929688 49.539062 299.339844 52.390625 299.339844 Z M 52.390625 299.339844 " fill-opacity="1" fill-rule="nonzero"/><path fill="#fff6a0" d="M 70.632812 286.445312 C 70.414062 286.445312 70.191406 286.445312 69.988281 286.445312 C 68.839844 286.445312 67.722656 287.460938 67.78125 288.652344 C 67.839844 289.84375 68.753906 290.855469 69.988281 290.855469 C 70.207031 290.855469 70.429688 290.855469 70.632812 290.855469 C 71.78125 290.855469 72.898438 289.84375 72.839844 288.652344 C 72.78125 287.460938 71.867188 286.445312 70.632812 286.445312 Z M 70.632812 286.445312 " fill-opacity="1" fill-rule="nonzero"/><path fill="#fff6a0" d="M 76.5 322.800781 C 79.335938 322.800781 79.335938 318.390625 76.5 318.390625 C 73.664062 318.390625 73.664062 322.800781 76.5 322.800781 Z M 76.5 322.800781 " fill-opacity="1" fill-rule="nonzero"/><path fill="#fff6a0" d="M 93.449219 306.511719 C 96.285156 306.511719 96.285156 302.101562 93.449219 302.101562 C 90.613281 302.101562 90.613281 306.511719 93.449219 306.511719 Z M 93.449219 306.511719 " fill-opacity="1" fill-rule="nonzero"/><path fill="#fff6a0" d="M 122.128906 344.96875 C 124.964844 344.96875 124.964844 340.558594 122.128906 340.558594 C 119.292969 340.558594 119.277344 344.96875 122.128906 344.96875 Z M 122.128906 344.96875 " fill-opacity="1" fill-rule="nonzero"/><path fill="#fff6a0" d="M 141.03125 328.019531 C 143.871094 328.019531 143.871094 323.609375 141.03125 323.609375 C 138.195312 323.609375 138.179688 328.019531 141.03125 328.019531 Z M 141.03125 328.019531 " fill-opacity="1" fill-rule="nonzero"/><path fill="#fff6a0" d="M 145.589844 347.570312 C 148.425781 347.570312 148.425781 343.160156 145.589844 343.160156 C 142.753906 343.160156 142.753906 347.570312 145.589844 347.570312 Z M 145.589844 347.570312 " fill-opacity="1" fill-rule="nonzero"/><path fill="#fff6a0" d="M 102.328125 321.242188 C 102.328125 321.460938 102.328125 321.683594 102.328125 321.886719 C 102.328125 323.035156 103.34375 324.152344 104.53125 324.09375 C 105.722656 324.035156 106.738281 323.125 106.738281 321.886719 C 106.738281 321.667969 106.738281 321.449219 106.738281 321.242188 C 106.738281 320.09375 105.722656 318.976562 104.53125 319.035156 C 103.328125 319.09375 102.328125 320.007812 102.328125 321.242188 Z M 102.328125 321.242188 " fill-opacity="1" fill-rule="nonzero"/><path fill="#fff6a0" d="M 19.800781 240.023438 C 22.636719 240.023438 22.636719 235.613281 19.800781 235.613281 C 16.964844 235.613281 16.949219 240.023438 19.800781 240.023438 Z M 19.800781 240.023438 " fill-opacity="1" fill-rule="nonzero"/><path fill="#fff6a0" d="M 23.050781 258.429688 C 22.828125 258.429688 22.609375 258.429688 22.402344 258.429688 C 21.257812 258.429688 20.140625 259.441406 20.199219 260.632812 C 20.257812 261.824219 21.167969 262.839844 22.402344 262.839844 C 22.625 262.839844 22.84375 262.839844 23.050781 262.839844 C 24.195312 262.839844 25.3125 261.824219 25.253906 260.632812 C 25.210938 259.441406 24.285156 258.429688 23.050781 258.429688 Z M 23.050781 258.429688 " fill-opacity="1" fill-rule="nonzero"/><path fill="#fff6a0" d="M 182.738281 359.300781 C 185.574219 359.300781 185.574219 354.890625 182.738281 354.890625 C 179.898438 354.890625 179.898438 359.300781 182.738281 359.300781 Z M 182.738281 359.300781 " fill-opacity="1" fill-rule="nonzero"/><path fill="#fff6a0" d="M 140.371094 357.992188 C 143.207031 357.992188 143.207031 353.582031 140.371094 353.582031 C 137.535156 353.582031 137.535156 357.992188 140.371094 357.992188 Z M 140.371094 357.992188 " fill-opacity="1" fill-rule="nonzero"/><path fill="#fff6a0" d="M 92.800781 335.839844 C 95.640625 335.839844 95.640625 331.429688 92.800781 331.429688 C 89.964844 331.429688 89.949219 335.839844 92.800781 335.839844 Z M 92.800781 335.839844 " fill-opacity="1" fill-rule="nonzero"/><path fill="#fff6a0" d="M 69.324219 304.703125 C 69.105469 304.703125 68.882812 304.703125 68.679688 304.703125 C 67.53125 304.703125 66.414062 305.71875 66.472656 306.910156 C 66.53125 308.101562 67.445312 309.113281 68.679688 309.113281 C 68.898438 309.113281 69.121094 309.113281 69.324219 309.113281 C 70.472656 309.113281 71.589844 308.101562 71.53125 306.910156 C 71.488281 305.71875 70.5625 304.703125 69.324219 304.703125 Z M 69.324219 304.703125 " fill-opacity="1" fill-rule="nonzero"/><path fill="#fff6a0" d="M 216.636719 356.035156 C 219.472656 356.035156 219.472656 351.625 216.636719 351.625 C 213.796875 351.625 213.796875 356.035156 216.636719 356.035156 Z M 216.636719 356.035156 " fill-opacity="1" fill-rule="nonzero"/><path fill="#fff6a0" d="M 156.011719 369.074219 C 158.847656 369.074219 158.847656 364.664062 156.011719 364.664062 C 153.175781 364.664062 153.175781 369.074219 156.011719 369.074219 Z M 156.011719 369.074219 " fill-opacity="1" fill-rule="nonzero"/><path fill="#fff6a0" d="M 166.449219 348.878906 C 169.285156 348.878906 169.285156 344.46875 166.449219 344.46875 C 163.613281 344.46875 163.613281 348.878906 166.449219 348.878906 Z M 166.449219 348.878906 " fill-opacity="1" fill-rule="nonzero"/><path fill="#fff6a0" d="M 204.257812 371.679688 C 207.09375 371.679688 207.09375 367.269531 204.257812 367.269531 C 201.40625 367.269531 201.40625 371.679688 204.257812 371.679688 Z M 204.257812 371.679688 " fill-opacity="1" fill-rule="nonzero"/><path fill="#fff6a0" d="M 180.78125 373.632812 C 183.621094 373.632812 183.621094 369.222656 180.78125 369.222656 C 177.945312 369.222656 177.945312 373.632812 180.78125 373.632812 Z M 180.78125 373.632812 " fill-opacity="1" fill-rule="nonzero"/><path fill="#fff6a0" d="M 107.132812 348.878906 C 109.972656 348.878906 109.972656 344.46875 107.132812 344.46875 C 104.296875 344.46875 104.296875 348.878906 107.132812 348.878906 Z M 107.132812 348.878906 " fill-opacity="1" fill-rule="nonzero"/><path fill="#fff6a0" d="M 11.980469 224.382812 C 14.816406 224.382812 14.816406 219.972656 11.980469 219.972656 C 9.144531 219.972656 9.128906 224.382812 11.980469 224.382812 Z M 11.980469 224.382812 " fill-opacity="1" fill-rule="nonzero"/><path fill="#fff6a0" d="M 123.4375 324.109375 C 126.273438 324.109375 126.273438 319.699219 123.4375 319.699219 C 120.585938 319.699219 120.585938 324.109375 123.4375 324.109375 Z M 123.4375 324.109375 " fill-opacity="1" fill-rule="nonzero"/><path fill="#fff6a0" d="M 202.304688 355.390625 C 205.140625 355.390625 205.140625 350.980469 202.304688 350.980469 C 199.453125 350.980469 199.453125 355.390625 202.304688 355.390625 Z M 202.304688 355.390625 " fill-opacity="1" fill-rule="nonzero"/><path fill="#fff6a0" d="M 36.734375 275.878906 C 39.574219 275.878906 39.574219 271.46875 36.734375 271.46875 C 33.898438 271.46875 33.898438 275.878906 36.734375 275.878906 Z M 36.734375 275.878906 " fill-opacity="1" fill-rule="nonzero"/><path fill="#fff6a0" d="M 299.160156 324.503906 C 299.160156 324.726562 299.160156 324.945312 299.160156 325.152344 C 299.160156 326.296875 300.175781 327.414062 301.367188 327.355469 C 302.558594 327.296875 303.570312 326.386719 303.570312 325.152344 C 303.570312 324.929688 303.570312 324.710938 303.570312 324.503906 C 303.570312 323.359375 302.558594 322.242188 301.367188 322.300781 C 300.175781 322.359375 299.160156 323.269531 299.160156 324.503906 Z M 299.160156 324.503906 " fill-opacity="1" fill-rule="nonzero"/><path fill="#fff6a0" d="M 318.066406 310.496094 C 318.066406 310.714844 318.066406 310.9375 318.066406 311.144531 C 318.066406 312.289062 319.082031 313.40625 320.269531 313.347656 C 321.460938 313.289062 322.476562 312.378906 322.476562 311.144531 C 322.476562 310.921875 322.476562 310.703125 322.476562 310.496094 C 322.476562 309.347656 321.460938 308.230469 320.269531 308.289062 C 319.082031 308.335938 318.066406 309.261719 318.066406 310.496094 Z M 318.066406 310.496094 " fill-opacity="1" fill-rule="nonzero"/><path fill="#fff6a0" d="M 327.445312 290.855469 C 330.28125 290.855469 330.28125 286.445312 327.445312 286.445312 C 324.609375 286.445312 324.59375 290.855469 327.445312 290.855469 Z M 327.445312 290.855469 " fill-opacity="1" fill-rule="nonzero"/><path fill="#fff6a0" d="M 349.996094 243.035156 C 349.996094 243.257812 349.996094 243.476562 349.996094 243.683594 C 349.996094 244.832031 351.007812 245.949219 352.199219 245.890625 C 353.390625 245.828125 354.40625 244.917969 354.40625 243.683594 C 354.40625 243.464844 354.40625 243.242188 354.40625 243.035156 C 354.40625 241.890625 353.390625 240.773438 352.199219 240.832031 C 351.007812 240.875 349.996094 241.800781 349.996094 243.035156 Z M 349.996094 243.035156 " fill-opacity="1" fill-rule="nonzero"/><path fill="#fff6a0" d="M 327.445312 266.101562 C 330.28125 266.101562 330.28125 261.691406 327.445312 261.691406 C 324.609375 261.691406 324.59375 266.101562 327.445312 266.101562 Z M 327.445312 266.101562 " fill-opacity="1" fill-rule="nonzero"/><path fill="#fff6a0" d="M 344.378906 279.125 C 347.214844 279.125 347.214844 274.714844 344.378906 274.714844 C 341.542969 274.714844 341.542969 279.125 344.378906 279.125 Z M 344.378906 279.125 " fill-opacity="1" fill-rule="nonzero"/><path fill="#fff6a0" d="M 307.878906 291.519531 C 310.714844 291.519531 310.714844 287.109375 307.878906 287.109375 C 305.042969 287.109375 305.042969 291.519531 307.878906 291.519531 Z M 307.878906 291.519531 " fill-opacity="1" fill-rule="nonzero"/><path fill="#fff6a0" d="M 293.546875 313.023438 C 296.382812 313.023438 296.382812 308.613281 293.546875 308.613281 C 290.710938 308.613281 290.710938 313.023438 293.546875 313.023438 Z M 293.546875 313.023438 " fill-opacity="1" fill-rule="nonzero"/><path fill="#fff6a0" d="M 346.730469 257.121094 C 346.511719 257.339844 346.289062 257.5625 346.085938 257.765625 C 345.246094 258.605469 345.246094 260.046875 346.085938 260.882812 C 346.921875 261.722656 348.363281 261.722656 349.203125 260.882812 C 349.421875 260.664062 349.640625 260.441406 349.847656 260.234375 C 350.6875 259.398438 350.6875 257.957031 349.847656 257.121094 C 349.011719 256.265625 347.585938 256.265625 346.730469 257.121094 Z M 346.730469 257.121094 " fill-opacity="1" fill-rule="nonzero"/><path fill="#fff6a0" d="M 360.433594 224.132812 C 360.433594 224.351562 360.433594 224.574219 360.433594 224.78125 C 360.433594 225.925781 361.445312 227.042969 362.636719 226.984375 C 363.828125 226.925781 364.84375 226.015625 364.84375 224.78125 C 364.84375 224.558594 364.84375 224.339844 364.84375 224.132812 C 364.84375 222.984375 363.828125 221.867188 362.636719 221.925781 C 361.445312 221.988281 360.433594 222.898438 360.433594 224.132812 Z M 360.433594 224.132812 " fill-opacity="1" fill-rule="nonzero"/><path fill="#e9e9e9" d="M 80.394531 238.304688 L 66.710938 238.304688 L 69.691406 144.28125 L 77.425781 144.28125 Z M 80.394531 238.304688 " fill-opacity="1" fill-rule="nonzero"/><path fill="#ffffff" d="M 76.707031 143.8125 L 56.242188 89.304688 C 55.800781 88.128906 54.039062 88.539062 54.171875 89.789062 L 58.316406 128.375 C 58.726562 132.226562 60.695312 135.742188 63.769531 138.109375 L 73.164062 145.355469 " fill-opacity="1" fill-rule="nonzero"/><path fill="#ffffff" d="M 71.988281 147.632812 L 128.875 135.253906 C 130.109375 134.992188 129.949219 133.183594 128.683594 133.140625 L 89.890625 131.667969 C 86.023438 131.523438 82.261719 132.960938 79.46875 135.652344 L 70.941406 143.898438 " fill-opacity="1" fill-rule="nonzero"/><path fill="#ffffff" d="M 70.796875 142.53125 L 23.59375 176.621094 C 22.566406 177.355469 23.445312 178.945312 24.609375 178.488281 L 60.753906 164.332031 C 64.355469 162.921875 67.238281 160.097656 68.707031 156.511719 L 73.222656 145.546875 " fill-opacity="1" fill-rule="nonzero"/><path fill="#c8c8c8" d="M 80.21875 144.503906 C 80.21875 144.9375 80.175781 145.371094 80.089844 145.800781 C 80.003906 146.230469 79.878906 146.648438 79.710938 147.050781 C 79.542969 147.453125 79.339844 147.839844 79.097656 148.203125 C 78.851562 148.566406 78.578125 148.902344 78.269531 149.210938 C 77.957031 149.519531 77.621094 149.796875 77.257812 150.039062 C 76.894531 150.28125 76.511719 150.488281 76.109375 150.65625 C 75.703125 150.820312 75.289062 150.949219 74.859375 151.035156 C 74.429688 151.117188 73.996094 151.160156 73.558594 151.160156 C 73.121094 151.160156 72.6875 151.117188 72.261719 151.035156 C 71.832031 150.949219 71.414062 150.820312 71.011719 150.65625 C 70.605469 150.488281 70.222656 150.28125 69.859375 150.039062 C 69.496094 149.796875 69.160156 149.519531 68.851562 149.210938 C 68.542969 148.902344 68.265625 148.566406 68.023438 148.203125 C 67.78125 147.839844 67.574219 147.453125 67.40625 147.050781 C 67.238281 146.648438 67.113281 146.230469 67.027344 145.800781 C 66.941406 145.371094 66.898438 144.9375 66.898438 144.503906 C 66.898438 144.066406 66.941406 143.632812 67.027344 143.203125 C 67.113281 142.773438 67.238281 142.359375 67.40625 141.953125 C 67.574219 141.550781 67.78125 141.167969 68.023438 140.800781 C 68.265625 140.4375 68.542969 140.101562 68.851562 139.792969 C 69.160156 139.484375 69.496094 139.207031 69.859375 138.964844 C 70.222656 138.722656 70.605469 138.515625 71.011719 138.351562 C 71.414062 138.183594 71.832031 138.054688 72.261719 137.972656 C 72.6875 137.886719 73.121094 137.84375 73.558594 137.84375 C 73.996094 137.84375 74.429688 137.886719 74.859375 137.972656 C 75.289062 138.054688 75.703125 138.183594 76.109375 138.351562 C 76.511719 138.515625 76.894531 138.722656 77.257812 138.964844 C 77.621094 139.207031 77.957031 139.484375 78.269531 139.792969 C 78.578125 140.101562 78.851562 140.4375 79.097656 140.800781 C 79.339844 141.167969 79.542969 141.550781 79.710938 141.953125 C 79.878906 142.359375 80.003906 142.773438 80.089844 143.203125 C 80.175781 143.632812 80.21875 144.066406 80.21875 144.503906 Z M 80.21875 144.503906 " fill-opacity="1" fill-rule="nonzero"/><path fill="#e9e9e9" d="M 301.367188 240.875 L 315.054688 240.875 L 312.082031 146.855469 L 304.351562 146.855469 Z M 301.367188 240.875 " fill-opacity="1" fill-rule="nonzero"/><path fill="#ffffff" d="M 305.21875 147.855469 L 310.90625 89.90625 C 311.023438 88.65625 312.847656 88.597656 313.039062 89.847656 L 319.007812 128.199219 C 319.609375 132.023438 318.609375 135.933594 316.257812 139.019531 L 309.054688 148.441406 " fill-opacity="1" fill-rule="nonzero"/><path fill="#ffffff" d="M 310.464844 148.042969 L 253.722656 161.097656 C 252.488281 161.378906 251.871094 159.671875 252.988281 159.097656 L 287.445312 141.238281 C 290.886719 139.460938 294.898438 139.152344 298.574219 140.402344 L 309.804688 144.238281 " fill-opacity="1" fill-rule="nonzero"/><path fill="#ffffff" d="M 310.980469 145.105469 L 358.183594 179.195312 C 359.210938 179.929688 358.328125 181.515625 357.167969 181.0625 L 321.019531 166.90625 C 317.417969 165.492188 314.539062 162.671875 313.066406 159.085938 L 308.554688 148.117188 " fill-opacity="1" fill-rule="nonzero"/><path fill="#c8c8c8" d="M 314.875 147.074219 C 314.875 147.511719 314.832031 147.945312 314.75 148.375 C 314.664062 148.800781 314.535156 149.21875 314.371094 149.621094 C 314.203125 150.027344 313.996094 150.410156 313.753906 150.773438 C 313.511719 151.136719 313.234375 151.472656 312.925781 151.785156 C 312.617188 152.09375 312.28125 152.367188 311.917969 152.613281 C 311.554688 152.855469 311.167969 153.058594 310.765625 153.226562 C 310.363281 153.394531 309.945312 153.519531 309.515625 153.605469 C 309.085938 153.691406 308.65625 153.734375 308.21875 153.734375 C 307.78125 153.734375 307.347656 153.691406 306.917969 153.605469 C 306.488281 153.519531 306.074219 153.394531 305.667969 153.226562 C 305.265625 153.058594 304.882812 152.855469 304.519531 152.613281 C 304.152344 152.367188 303.816406 152.09375 303.507812 151.785156 C 303.199219 151.472656 302.921875 151.136719 302.679688 150.773438 C 302.4375 150.410156 302.234375 150.027344 302.066406 149.621094 C 301.898438 149.21875 301.773438 148.800781 301.6875 148.375 C 301.601562 147.945312 301.558594 147.511719 301.558594 147.074219 C 301.558594 146.636719 301.601562 146.203125 301.6875 145.777344 C 301.773438 145.347656 301.898438 144.929688 302.066406 144.527344 C 302.234375 144.121094 302.4375 143.738281 302.679688 143.375 C 302.921875 143.011719 303.199219 142.675781 303.507812 142.367188 C 303.816406 142.058594 304.152344 141.78125 304.519531 141.539062 C 304.882812 141.292969 305.265625 141.089844 305.667969 140.921875 C 306.074219 140.753906 306.488281 140.628906 306.917969 140.542969 C 307.347656 140.457031 307.78125 140.414062 308.21875 140.414062 C 308.65625 140.414062 309.085938 140.457031 309.515625 140.542969 C 309.945312 140.628906 310.363281 140.753906 310.765625 140.921875 C 311.167969 141.089844 311.554688 141.292969 311.917969 141.539062 C 312.28125 141.78125 312.617188 142.058594 312.925781 142.367188 C 313.234375 142.675781 313.511719 143.011719 313.753906 143.375 C 313.996094 143.738281 314.203125 144.121094 314.371094 144.527344 C 314.535156 144.929688 314.664062 145.347656 314.75 145.777344 C 314.832031 146.203125 314.875 146.636719 314.875 147.074219 Z M 314.875 147.074219 " fill-opacity="1" fill-rule="nonzero"/><path fill="#e9e9e9" d="M 203.523438 309.21875 L 181.796875 309.21875 L 186.53125 160.027344 L 198.789062 160.027344 Z M 203.523438 309.21875 " fill-opacity="1" fill-rule="nonzero"/><path fill="#ffffff" d="M 198.789062 160.027344 L 198.789062 67.636719 C 198.789062 65.636719 195.9375 65.269531 195.4375 67.207031 L 180.078125 126.863281 C 178.546875 132.816406 179.503906 139.136719 182.75 144.371094 L 192.675781 160.363281 " fill-opacity="1" fill-rule="nonzero"/><path fill="#ffffff" d="M 189.835938 159.480469 L 266.851562 210.519531 C 268.511719 211.621094 270.394531 209.449219 269.054688 207.960938 L 227.824219 162.199219 C 223.707031 157.628906 217.898438 154.9375 211.753906 154.761719 L 192.9375 154.191406 " fill-opacity="1" fill-rule="nonzero"/><path fill="#ffffff" d="M 190.71875 154.820312 L 101.59375 179.148438 C 99.667969 179.679688 100.0625 182.53125 102.0625 182.503906 L 163.65625 181.621094 C 169.800781 181.53125 175.652344 178.945312 179.839844 174.429688 L 192.675781 160.65625 " fill-opacity="1" fill-rule="nonzero"/><path fill="#c8c8c8" d="M 203.214844 160.363281 C 203.214844 161.054688 203.148438 161.742188 203.011719 162.421875 C 202.875 163.101562 202.675781 163.761719 202.410156 164.402344 C 202.144531 165.042969 201.820312 165.652344 201.4375 166.226562 C 201.050781 166.804688 200.613281 167.335938 200.121094 167.828125 C 199.632812 168.316406 199.101562 168.753906 198.523438 169.140625 C 197.949219 169.523438 197.339844 169.847656 196.699219 170.113281 C 196.058594 170.378906 195.398438 170.582031 194.71875 170.714844 C 194.039062 170.851562 193.351562 170.917969 192.660156 170.917969 C 191.964844 170.917969 191.28125 170.851562 190.601562 170.714844 C 189.921875 170.582031 189.261719 170.378906 188.621094 170.113281 C 187.980469 169.847656 187.371094 169.523438 186.796875 169.140625 C 186.21875 168.753906 185.6875 168.316406 185.195312 167.828125 C 184.707031 167.335938 184.269531 166.804688 183.882812 166.226562 C 183.5 165.652344 183.171875 165.042969 182.910156 164.402344 C 182.644531 163.761719 182.441406 163.101562 182.308594 162.421875 C 182.171875 161.742188 182.105469 161.054688 182.105469 160.363281 C 182.105469 159.671875 182.171875 158.984375 182.308594 158.304688 C 182.441406 157.625 182.644531 156.964844 182.910156 156.324219 C 183.171875 155.683594 183.5 155.074219 183.882812 154.5 C 184.269531 153.921875 184.707031 153.390625 185.195312 152.898438 C 185.6875 152.410156 186.21875 151.972656 186.796875 151.585938 C 187.371094 151.203125 187.980469 150.878906 188.621094 150.613281 C 189.261719 150.347656 189.921875 150.148438 190.601562 150.011719 C 191.28125 149.875 191.964844 149.808594 192.660156 149.808594 C 193.351562 149.808594 194.039062 149.875 194.71875 150.011719 C 195.398438 150.148438 196.058594 150.347656 196.699219 150.613281 C 197.339844 150.878906 197.949219 151.203125 198.523438 151.585938 C 199.101562 151.972656 199.632812 152.410156 200.121094 152.898438 C 200.613281 153.390625 201.050781 153.921875 201.4375 154.5 C 201.820312 155.074219 202.144531 155.683594 202.410156 156.324219 C 202.675781 156.964844 202.875 157.625 203.011719 158.304688 C 203.148438 158.984375 203.214844 159.671875 203.214844 160.363281 Z M 203.214844 160.363281 " fill-opacity="1" fill-rule="nonzero"/></svg>