<svg xmlns="http://www.w3.org/2000/svg" xmlns:xlink="http://www.w3.org/1999/xlink" width="500" zoomAndPan="magnify" viewBox="0 0 375 374.999991" height="500" preserveAspectRatio="xMidYMid meet" version="1.0"><defs><clipPath id="id1"><path d="M 0 37.5 L 375 37.5 L 375 375 L 0 375 Z M 0 37.5 " clip-rule="nonzero"/></clipPath></defs><g clip-path="url(#id1)"><path fill="#141418" d="M 321.273438 91.039062 L 200.878906 91.039062 C 198.523438 91.039062 196.191406 90.804688 193.882812 90.339844 C 191.574219 89.871094 189.335938 89.183594 187.164062 88.269531 C 184.992188 87.355469 182.933594 86.234375 180.984375 84.910156 C 179.039062 83.585938 177.242188 82.082031 175.59375 80.398438 L 149.574219 53.628906 C 147.074219 51.066406 144.339844 48.777344 141.378906 46.761719 C 138.414062 44.746094 135.28125 43.046875 131.980469 41.660156 C 128.675781 40.277344 125.269531 39.234375 121.757812 38.53125 C 118.242188 37.832031 114.695312 37.488281 111.113281 37.5 L 53.726562 37.5 C 51.972656 37.5 50.226562 37.585938 48.480469 37.757812 C 46.738281 37.929688 45.003906 38.1875 43.285156 38.527344 C 41.566406 38.871094 39.871094 39.296875 38.191406 39.804688 C 36.515625 40.3125 34.867188 40.90625 33.25 41.574219 C 31.628906 42.246094 30.046875 42.996094 28.5 43.820312 C 26.957031 44.648438 25.453125 45.546875 23.996094 46.523438 C 22.539062 47.496094 21.132812 48.539062 19.78125 49.652344 C 18.425781 50.765625 17.128906 51.941406 15.890625 53.179688 C 14.648438 54.421875 13.472656 55.71875 12.363281 57.074219 C 11.25 58.429688 10.207031 59.835938 9.234375 61.292969 C 8.261719 62.753906 7.359375 64.253906 6.535156 65.800781 C 5.707031 67.347656 4.960938 68.929688 4.289062 70.550781 C 3.617188 72.171875 3.027344 73.820312 2.519531 75.496094 C 2.011719 77.175781 1.585938 78.875 1.246094 80.59375 C 0.902344 82.3125 0.644531 84.046875 0.472656 85.789062 C 0.300781 87.535156 0.214844 89.285156 0.214844 91.039062 L 0.214844 331.960938 C 0.214844 333.714844 0.300781 335.464844 0.472656 337.210938 C 0.644531 338.953125 0.902344 340.6875 1.246094 342.40625 C 1.585938 344.125 2.011719 345.824219 2.519531 347.503906 C 3.027344 349.179688 3.617188 350.828125 4.289062 352.449219 C 4.960938 354.070312 5.707031 355.652344 6.535156 357.199219 C 7.359375 358.746094 8.261719 360.246094 9.234375 361.707031 C 10.207031 363.164062 11.25 364.570312 12.363281 365.925781 C 13.472656 367.28125 14.648438 368.578125 15.890625 369.820312 C 17.128906 371.058594 18.425781 372.234375 19.78125 373.347656 C 21.132812 374.460938 22.539062 375.503906 23.996094 376.476562 C 25.453125 377.453125 26.957031 378.351562 28.5 379.179688 C 30.046875 380.003906 31.628906 380.753906 33.25 381.425781 C 34.867188 382.09375 36.515625 382.6875 38.191406 383.195312 C 39.871094 383.703125 41.566406 384.128906 43.285156 384.472656 C 45.003906 384.8125 46.738281 385.070312 48.480469 385.242188 C 50.226562 385.414062 51.972656 385.5 53.726562 385.5 L 321.273438 385.5 C 323.027344 385.5 324.773438 385.414062 326.519531 385.242188 C 328.261719 385.070312 329.996094 384.8125 331.714844 384.472656 C 333.433594 384.128906 335.128906 383.703125 336.808594 383.195312 C 338.484375 382.6875 340.132812 382.09375 341.75 381.425781 C 343.371094 380.753906 344.953125 380.003906 346.5 379.179688 C 348.042969 378.351562 349.546875 377.453125 351.003906 376.476562 C 352.460938 375.503906 353.867188 374.460938 355.21875 373.347656 C 356.574219 372.234375 357.871094 371.058594 359.109375 369.820312 C 360.351562 368.578125 361.527344 367.28125 362.636719 365.925781 C 363.75 364.570312 364.792969 363.164062 365.765625 361.707031 C 366.738281 360.246094 367.640625 358.746094 368.464844 357.199219 C 369.292969 355.652344 370.039062 354.070312 370.710938 352.449219 C 371.382812 350.828125 371.972656 349.179688 372.480469 347.503906 C 372.988281 345.824219 373.414062 344.125 373.753906 342.40625 C 374.097656 340.6875 374.355469 338.953125 374.527344 337.210938 C 374.699219 335.464844 374.785156 333.714844 374.785156 331.960938 L 374.785156 144.578125 C 374.785156 142.824219 374.699219 141.074219 374.527344 139.328125 C 374.355469 137.585938 374.097656 135.851562 373.753906 134.132812 C 373.414062 132.414062 372.988281 130.714844 372.480469 129.035156 C 371.972656 127.359375 371.382812 125.707031 370.710938 124.089844 C 370.039062 122.46875 369.292969 120.886719 368.464844 119.339844 C 367.640625 117.792969 366.738281 116.289062 365.765625 114.832031 C 364.792969 113.375 363.75 111.96875 362.636719 110.613281 C 361.527344 109.257812 360.351562 107.960938 359.109375 106.71875 C 357.871094 105.480469 356.574219 104.304688 355.21875 103.191406 C 353.867188 102.078125 352.460938 101.035156 351.003906 100.0625 C 349.546875 99.085938 348.042969 98.1875 346.5 97.359375 C 344.953125 96.535156 343.371094 95.785156 341.75 95.113281 C 340.132812 94.441406 338.484375 93.851562 336.808594 93.34375 C 335.128906 92.835938 333.433594 92.410156 331.714844 92.066406 C 329.996094 91.726562 328.261719 91.46875 326.519531 91.296875 C 324.773438 91.125 323.027344 91.039062 321.273438 91.039062 Z M 179.273438 161.507812 L 217.0625 161.507812 C 217.6875 161.492188 218.296875 161.558594 218.902344 161.714844 C 219.503906 161.867188 220.074219 162.101562 220.613281 162.414062 C 221.148438 162.730469 221.632812 163.109375 222.066406 163.558594 C 222.496094 164.007812 222.859375 164.503906 223.152344 165.054688 L 274.855469 254.597656 C 275.21875 255.117188 275.503906 255.679688 275.707031 256.28125 C 275.910156 256.882812 276.027344 257.5 276.054688 258.132812 C 276.085938 258.769531 276.023438 259.394531 275.875 260.011719 C 275.726562 260.628906 275.492188 261.210938 275.175781 261.761719 C 274.859375 262.3125 274.476562 262.808594 274.019531 263.25 C 273.5625 263.691406 273.050781 264.058594 272.492188 264.355469 C 271.929688 264.652344 271.335938 264.863281 270.714844 264.992188 C 270.09375 265.117188 269.46875 265.15625 268.835938 265.105469 L 248.769531 265.105469 C 247.148438 265.113281 245.53125 265.015625 243.921875 264.8125 C 242.3125 264.609375 240.726562 264.296875 239.15625 263.886719 C 237.589844 263.472656 236.054688 262.957031 234.554688 262.339844 C 233.054688 261.726562 231.601562 261.011719 230.195312 260.207031 C 228.789062 259.398438 227.441406 258.503906 226.152344 257.515625 C 224.863281 256.53125 223.644531 255.464844 222.5 254.320312 C 221.351562 253.175781 220.28125 251.957031 219.292969 250.671875 C 218.304688 249.386719 217.40625 248.039062 216.597656 246.632812 L 173.253906 171.949219 C 172.898438 171.429688 172.625 170.871094 172.429688 170.269531 C 172.230469 169.671875 172.121094 169.058594 172.097656 168.429688 C 172.074219 167.800781 172.140625 167.183594 172.289062 166.570312 C 172.441406 165.960938 172.675781 165.382812 172.988281 164.839844 C 173.304688 164.292969 173.6875 163.800781 174.140625 163.367188 C 174.59375 162.929688 175.097656 162.5625 175.652344 162.269531 C 176.207031 161.972656 176.792969 161.761719 177.410156 161.632812 C 178.023438 161.503906 178.644531 161.460938 179.273438 161.507812 Z M 119.074219 306.464844 L 100.078125 273.804688 C 99.753906 273.277344 99.503906 272.714844 99.335938 272.117188 C 99.167969 271.519531 99.082031 270.914062 99.082031 270.292969 C 99.082031 269.671875 99.167969 269.0625 99.335938 268.464844 C 99.503906 267.867188 99.753906 267.304688 100.078125 266.777344 L 151.78125 177.167969 C 152.054688 176.601562 152.402344 176.085938 152.820312 175.617188 C 153.242188 175.148438 153.71875 174.75 154.25 174.414062 C 154.78125 174.082031 155.351562 173.828125 155.953125 173.652344 C 156.558594 173.480469 157.175781 173.394531 157.800781 173.394531 C 158.429688 173.394531 159.046875 173.480469 159.648438 173.652344 C 160.253906 173.828125 160.820312 174.082031 161.355469 174.414062 C 161.886719 174.75 162.363281 175.148438 162.78125 175.617188 C 163.203125 176.085938 163.546875 176.601562 163.820312 177.167969 L 174.121094 194.769531 C 174.9375 196.171875 175.65625 197.625 176.277344 199.125 C 176.902344 200.625 177.425781 202.15625 177.847656 203.722656 C 178.269531 205.292969 178.585938 206.882812 178.796875 208.492188 C 179.011719 210.101562 179.117188 211.71875 179.117188 213.339844 C 179.117188 214.964844 179.011719 216.582031 178.796875 218.191406 C 178.585938 219.800781 178.269531 221.386719 177.847656 222.957031 C 177.425781 224.523438 176.902344 226.058594 176.277344 227.554688 C 175.65625 229.054688 174.9375 230.507812 174.121094 231.910156 L 131.246094 306.464844 C 131.09375 306.726562 130.921875 306.976562 130.734375 307.21875 C 130.546875 307.457031 130.347656 307.6875 130.128906 307.898438 C 129.914062 308.113281 129.683594 308.3125 129.441406 308.496094 C 129.199219 308.679688 128.945312 308.847656 128.679688 309 C 128.417969 309.152344 128.144531 309.285156 127.863281 309.402344 C 127.582031 309.515625 127.292969 309.613281 127 309.691406 C 126.703125 309.769531 126.40625 309.828125 126.105469 309.867188 C 125.800781 309.90625 125.5 309.925781 125.195312 309.925781 C 124.890625 309.925781 124.585938 309.90625 124.285156 309.867188 C 123.984375 309.828125 123.683594 309.769531 123.390625 309.691406 C 123.097656 309.613281 122.808594 309.515625 122.527344 309.402344 C 122.246094 309.285156 121.972656 309.152344 121.707031 309 C 121.445312 308.847656 121.191406 308.679688 120.949219 308.496094 C 120.707031 308.3125 120.476562 308.113281 120.257812 307.898438 C 120.042969 307.6875 119.839844 307.457031 119.652344 307.21875 C 119.464844 306.976562 119.296875 306.726562 119.140625 306.464844 Z M 274.789062 285.582031 L 256.125 318.578125 C 255.816406 319.109375 255.441406 319.589844 255.003906 320.023438 C 254.566406 320.457031 254.082031 320.824219 253.546875 321.132812 C 253.011719 321.4375 252.449219 321.667969 251.855469 321.824219 C 251.257812 321.980469 250.65625 322.058594 250.039062 322.058594 L 146.632812 322.058594 C 145.996094 322.105469 145.367188 322.066406 144.742188 321.933594 C 144.121094 321.804688 143.527344 321.589844 142.964844 321.289062 C 142.402344 320.988281 141.894531 320.617188 141.4375 320.171875 C 140.984375 319.726562 140.597656 319.226562 140.285156 318.667969 C 139.972656 318.113281 139.746094 317.527344 139.597656 316.90625 C 139.453125 316.285156 139.398438 315.65625 139.433594 315.019531 C 139.46875 314.382812 139.59375 313.761719 139.804688 313.160156 C 140.015625 312.5625 140.308594 312 140.679688 311.484375 L 150.847656 293.75 C 151.652344 292.339844 152.546875 290.992188 153.53125 289.703125 C 154.515625 288.410156 155.578125 287.191406 156.722656 286.042969 C 157.867188 284.890625 159.082031 283.824219 160.367188 282.832031 C 161.652344 281.84375 162.996094 280.941406 164.398438 280.128906 C 165.800781 279.3125 167.253906 278.597656 168.75 277.972656 C 170.25 277.351562 171.78125 276.832031 173.347656 276.410156 C 174.914062 275.988281 176.5 275.671875 178.105469 275.460938 C 179.714844 275.25 181.328125 275.144531 182.953125 275.144531 L 268.835938 275.144531 C 269.460938 275.097656 270.082031 275.140625 270.699219 275.269531 C 271.3125 275.398438 271.898438 275.609375 272.457031 275.902344 C 273.011719 276.199219 273.515625 276.5625 273.96875 277 C 274.421875 277.4375 274.804688 277.929688 275.117188 278.472656 C 275.433594 279.019531 275.664062 279.597656 275.816406 280.207031 C 275.96875 280.816406 276.03125 281.4375 276.007812 282.066406 C 275.984375 282.695312 275.875 283.308594 275.679688 283.90625 C 275.484375 284.503906 275.207031 285.0625 274.855469 285.582031 Z M 274.789062 285.582031 " fill-opacity="1" fill-rule="nonzero"/></g></svg>