<svg xmlns="http://www.w3.org/2000/svg" xmlns:xlink="http://www.w3.org/1999/xlink" width="500" zoomAndPan="magnify" viewBox="0 0 375 374.999991" height="500" preserveAspectRatio="xMidYMid meet" version="1.0"><path fill="#141418" d="M 112.5 300 L 56.25 300 C 54.410156 300 52.570312 299.90625 50.738281 299.722656 C 48.90625 299.542969 47.085938 299.269531 45.28125 298.910156 C 43.472656 298.550781 41.691406 298.101562 39.929688 297.566406 C 38.164062 297.03125 36.433594 296.410156 34.734375 295.703125 C 33.03125 294.996094 31.367188 294.210938 29.746094 293.339844 C 28.121094 292.472656 26.542969 291.527344 25.011719 290.503906 C 23.480469 289.480469 22.003906 288.382812 20.582031 287.214844 C 19.15625 286.046875 17.792969 284.8125 16.492188 283.507812 C 15.1875 282.207031 13.953125 280.84375 12.785156 279.417969 C 11.617188 277.996094 10.519531 276.519531 9.496094 274.988281 C 8.472656 273.457031 7.527344 271.878906 6.660156 270.253906 C 5.789062 268.632812 5.003906 266.96875 4.296875 265.265625 C 3.589844 263.566406 2.96875 261.835938 2.433594 260.070312 C 1.898438 258.308594 1.449219 256.527344 1.089844 254.71875 C 0.730469 252.914062 0.457031 251.09375 0.277344 249.261719 C 0.09375 247.429688 0 245.589844 0 243.75 L 0 168.75 C 0 166.910156 0.09375 165.070312 0.277344 163.238281 C 0.457031 161.40625 0.730469 159.585938 1.089844 157.78125 C 1.449219 155.972656 1.898438 154.191406 2.433594 152.429688 C 2.96875 150.664062 3.589844 148.933594 4.296875 147.234375 C 5.003906 145.53125 5.789062 143.867188 6.660156 142.246094 C 7.527344 140.621094 8.472656 139.042969 9.496094 137.511719 C 10.519531 135.980469 11.617188 134.503906 12.785156 133.082031 C 13.953125 131.65625 15.1875 130.292969 16.492188 128.992188 C 17.792969 127.6875 19.15625 126.453125 20.582031 125.285156 C 22.003906 124.117188 23.480469 123.019531 25.011719 121.996094 C 26.542969 120.972656 28.121094 120.027344 29.746094 119.160156 C 31.367188 118.289062 33.03125 117.503906 34.734375 116.796875 C 36.433594 116.089844 38.164062 115.46875 39.929688 114.933594 C 41.691406 114.398438 43.472656 113.949219 45.28125 113.589844 C 47.085938 113.230469 48.90625 112.957031 50.738281 112.777344 C 52.570312 112.59375 54.410156 112.5 56.25 112.5 L 187.5 112.5 C 188.113281 112.5 188.726562 112.53125 189.335938 112.589844 C 189.949219 112.652344 190.554688 112.742188 191.15625 112.859375 C 191.761719 112.980469 192.355469 113.128906 192.941406 113.308594 C 193.53125 113.484375 194.109375 113.691406 194.675781 113.925781 C 195.242188 114.164062 195.796875 114.425781 196.339844 114.714844 C 196.878906 115.003906 197.40625 115.320312 197.917969 115.660156 C 198.425781 116 198.921875 116.367188 199.394531 116.757812 C 199.871094 117.144531 200.324219 117.558594 200.757812 117.992188 C 201.191406 118.425781 201.605469 118.878906 201.992188 119.355469 C 202.382812 119.828125 202.75 120.324219 203.089844 120.832031 C 203.429688 121.34375 203.746094 121.871094 204.035156 122.410156 C 204.324219 122.953125 204.585938 123.507812 204.824219 124.074219 C 205.058594 124.640625 205.265625 125.21875 205.441406 125.808594 C 205.621094 126.394531 205.769531 126.988281 205.890625 127.59375 C 206.007812 128.195312 206.097656 128.800781 206.160156 129.414062 C 206.21875 130.023438 206.25 130.636719 206.25 131.25 C 206.25 131.863281 206.21875 132.476562 206.160156 133.085938 C 206.097656 133.699219 206.007812 134.304688 205.890625 134.90625 C 205.769531 135.511719 205.621094 136.105469 205.441406 136.691406 C 205.265625 137.28125 205.058594 137.859375 204.824219 138.425781 C 204.585938 138.992188 204.324219 139.546875 204.035156 140.089844 C 203.746094 140.628906 203.429688 141.15625 203.089844 141.667969 C 202.75 142.175781 202.382812 142.671875 201.992188 143.144531 C 201.605469 143.621094 201.191406 144.074219 200.757812 144.507812 C 200.324219 144.941406 199.871094 145.355469 199.394531 145.742188 C 198.921875 146.132812 198.425781 146.5 197.917969 146.839844 C 197.40625 147.179688 196.878906 147.496094 196.339844 147.785156 C 195.796875 148.074219 195.242188 148.335938 194.675781 148.574219 C 194.109375 148.808594 193.53125 149.015625 192.941406 149.191406 C 192.355469 149.371094 191.761719 149.519531 191.15625 149.640625 C 190.554688 149.757812 189.949219 149.847656 189.335938 149.910156 C 188.726562 149.96875 188.113281 150 187.5 150 L 56.25 150 C 55.636719 150 55.023438 150.03125 54.414062 150.089844 C 53.800781 150.152344 53.195312 150.242188 52.59375 150.359375 C 51.988281 150.480469 51.394531 150.628906 50.808594 150.808594 C 50.21875 150.984375 49.640625 151.191406 49.074219 151.425781 C 48.507812 151.664062 47.953125 151.925781 47.410156 152.214844 C 46.871094 152.503906 46.34375 152.820312 45.832031 153.160156 C 45.324219 153.5 44.828125 153.867188 44.355469 154.257812 C 43.878906 154.644531 43.425781 155.058594 42.992188 155.492188 C 42.558594 155.925781 42.144531 156.378906 41.757812 156.855469 C 41.367188 157.328125 41 157.824219 40.660156 158.332031 C 40.320312 158.84375 40.003906 159.371094 39.714844 159.910156 C 39.425781 160.453125 39.164062 161.007812 38.925781 161.574219 C 38.691406 162.140625 38.484375 162.71875 38.308594 163.308594 C 38.128906 163.894531 37.980469 164.488281 37.859375 165.09375 C 37.742188 165.695312 37.652344 166.300781 37.589844 166.914062 C 37.53125 167.523438 37.5 168.136719 37.5 168.75 L 37.5 243.75 C 37.5 244.363281 37.53125 244.976562 37.589844 245.585938 C 37.652344 246.199219 37.742188 246.804688 37.859375 247.40625 C 37.980469 248.011719 38.128906 248.605469 38.308594 249.191406 C 38.484375 249.78125 38.691406 250.359375 38.925781 250.925781 C 39.164062 251.492188 39.425781 252.046875 39.714844 252.589844 C 40.003906 253.128906 40.320312 253.65625 40.660156 254.167969 C 41 254.675781 41.367188 255.171875 41.757812 255.644531 C 42.144531 256.121094 42.558594 256.574219 42.992188 257.007812 C 43.425781 257.441406 43.878906 257.855469 44.355469 258.242188 C 44.828125 258.632812 45.324219 259 45.832031 259.339844 C 46.34375 259.679688 46.871094 259.996094 47.410156 260.285156 C 47.953125 260.574219 48.507812 260.835938 49.074219 261.074219 C 49.640625 261.308594 50.21875 261.515625 50.808594 261.691406 C 51.394531 261.871094 51.988281 262.019531 52.59375 262.140625 C 53.195312 262.257812 53.800781 262.347656 54.414062 262.410156 C 55.023438 262.46875 55.636719 262.5 56.25 262.5 L 112.5 262.5 C 113.113281 262.5 113.726562 262.53125 114.335938 262.589844 C 114.949219 262.652344 115.554688 262.742188 116.15625 262.859375 C 116.761719 262.980469 117.355469 263.128906 117.941406 263.308594 C 118.53125 263.484375 119.109375 263.691406 119.675781 263.925781 C 120.242188 264.164062 120.796875 264.425781 121.339844 264.714844 C 121.878906 265.003906 122.40625 265.320312 122.917969 265.660156 C 123.425781 266 123.921875 266.367188 124.394531 266.757812 C 124.871094 267.144531 125.324219 267.558594 125.757812 267.992188 C 126.191406 268.425781 126.605469 268.878906 126.992188 269.355469 C 127.382812 269.828125 127.75 270.324219 128.089844 270.832031 C 128.429688 271.34375 128.746094 271.871094 129.035156 272.410156 C 129.324219 272.953125 129.585938 273.507812 129.824219 274.074219 C 130.058594 274.640625 130.265625 275.21875 130.441406 275.808594 C 130.621094 276.394531 130.769531 276.988281 130.890625 277.59375 C 131.007812 278.195312 131.097656 278.800781 131.160156 279.414062 C 131.21875 280.023438 131.25 280.636719 131.25 281.25 C 131.25 281.863281 131.21875 282.476562 131.160156 283.085938 C 131.097656 283.699219 131.007812 284.304688 130.890625 284.90625 C 130.769531 285.511719 130.621094 286.105469 130.441406 286.691406 C 130.265625 287.28125 130.058594 287.859375 129.824219 288.425781 C 129.585938 288.992188 129.324219 289.546875 129.035156 290.089844 C 128.746094 290.628906 128.429688 291.15625 128.089844 291.667969 C 127.75 292.175781 127.382812 292.671875 126.992188 293.144531 C 126.605469 293.621094 126.191406 294.074219 125.757812 294.507812 C 125.324219 294.941406 124.871094 295.355469 124.394531 295.742188 C 123.921875 296.132812 123.425781 296.5 122.917969 296.839844 C 122.40625 297.179688 121.878906 297.496094 121.339844 297.785156 C 120.796875 298.074219 120.242188 298.335938 119.675781 298.574219 C 119.109375 298.808594 118.53125 299.015625 117.941406 299.191406 C 117.355469 299.371094 116.761719 299.519531 116.15625 299.640625 C 115.554688 299.757812 114.949219 299.847656 114.335938 299.910156 C 113.726562 299.96875 113.113281 300 112.5 300 Z M 112.5 300 " fill-opacity="1" fill-rule="nonzero"/><path fill="#141418" d="M 318.75 262.5 L 187.5 262.5 C 186.886719 262.5 186.273438 262.46875 185.664062 262.410156 C 185.050781 262.347656 184.445312 262.257812 183.84375 262.140625 C 183.238281 262.019531 182.644531 261.871094 182.058594 261.691406 C 181.46875 261.515625 180.890625 261.308594 180.324219 261.074219 C 179.757812 260.835938 179.203125 260.574219 178.660156 260.285156 C 178.121094 259.996094 177.59375 259.679688 177.082031 259.339844 C 176.574219 259 176.078125 258.632812 175.605469 258.242188 C 175.128906 257.855469 174.675781 257.441406 174.242188 257.007812 C 173.808594 256.574219 173.394531 256.121094 173.007812 255.644531 C 172.617188 255.171875 172.25 254.675781 171.910156 254.167969 C 171.570312 253.65625 171.253906 253.128906 170.964844 252.589844 C 170.675781 252.046875 170.414062 251.492188 170.175781 250.925781 C 169.941406 250.359375 169.734375 249.78125 169.558594 249.191406 C 169.378906 248.605469 169.230469 248.011719 169.109375 247.40625 C 168.992188 246.804688 168.902344 246.199219 168.839844 245.585938 C 168.78125 244.976562 168.75 244.363281 168.75 243.75 C 168.75 243.136719 168.78125 242.523438 168.839844 241.914062 C 168.902344 241.300781 168.992188 240.695312 169.109375 240.09375 C 169.230469 239.488281 169.378906 238.894531 169.558594 238.308594 C 169.734375 237.71875 169.941406 237.140625 170.175781 236.574219 C 170.414062 236.007812 170.675781 235.453125 170.964844 234.910156 C 171.253906 234.371094 171.570312 233.84375 171.910156 233.332031 C 172.25 232.824219 172.617188 232.328125 173.007812 231.855469 C 173.394531 231.378906 173.808594 230.925781 174.242188 230.492188 C 174.675781 230.058594 175.128906 229.644531 175.605469 229.257812 C 176.078125 228.867188 176.574219 228.5 177.082031 228.160156 C 177.59375 227.820312 178.121094 227.503906 178.660156 227.214844 C 179.203125 226.925781 179.757812 226.664062 180.324219 226.425781 C 180.890625 226.191406 181.46875 225.984375 182.058594 225.808594 C 182.644531 225.628906 183.238281 225.480469 183.84375 225.359375 C 184.445312 225.242188 185.050781 225.152344 185.664062 225.089844 C 186.273438 225.03125 186.886719 225 187.5 225 L 318.75 225 C 319.363281 225 319.976562 224.96875 320.585938 224.910156 C 321.199219 224.847656 321.804688 224.757812 322.40625 224.640625 C 323.011719 224.519531 323.605469 224.371094 324.191406 224.191406 C 324.78125 224.015625 325.359375 223.808594 325.925781 223.574219 C 326.492188 223.335938 327.046875 223.074219 327.589844 222.785156 C 328.128906 222.496094 328.65625 222.179688 329.167969 221.839844 C 329.675781 221.5 330.171875 221.132812 330.644531 220.742188 C 331.121094 220.355469 331.574219 219.941406 332.007812 219.507812 C 332.441406 219.074219 332.855469 218.621094 333.242188 218.144531 C 333.632812 217.671875 334 217.175781 334.339844 216.667969 C 334.679688 216.15625 334.996094 215.628906 335.285156 215.089844 C 335.574219 214.546875 335.835938 213.992188 336.074219 213.425781 C 336.308594 212.859375 336.515625 212.28125 336.691406 211.691406 C 336.871094 211.105469 337.019531 210.511719 337.140625 209.90625 C 337.257812 209.304688 337.347656 208.699219 337.410156 208.085938 C 337.46875 207.476562 337.5 206.863281 337.5 206.25 L 337.5 131.25 C 337.5 130.636719 337.46875 130.023438 337.410156 129.414062 C 337.347656 128.800781 337.257812 128.195312 337.140625 127.59375 C 337.019531 126.988281 336.871094 126.394531 336.691406 125.808594 C 336.515625 125.21875 336.308594 124.640625 336.074219 124.074219 C 335.835938 123.507812 335.574219 122.953125 335.285156 122.410156 C 334.996094 121.871094 334.679688 121.34375 334.339844 120.832031 C 334 120.324219 333.632812 119.828125 333.242188 119.355469 C 332.855469 118.878906 332.441406 118.425781 332.007812 117.992188 C 331.574219 117.558594 331.121094 117.144531 330.644531 116.757812 C 330.171875 116.367188 329.675781 116 329.167969 115.660156 C 328.65625 115.320312 328.128906 115.003906 327.589844 114.714844 C 327.046875 114.425781 326.492188 114.164062 325.925781 113.925781 C 325.359375 113.691406 324.78125 113.484375 324.191406 113.308594 C 323.605469 113.128906 323.011719 112.980469 322.40625 112.859375 C 321.804688 112.742188 321.199219 112.652344 320.585938 112.589844 C 319.976562 112.53125 319.363281 112.5 318.75 112.5 L 262.5 112.5 C 261.886719 112.5 261.273438 112.46875 260.664062 112.410156 C 260.050781 112.347656 259.445312 112.257812 258.84375 112.140625 C 258.238281 112.019531 257.644531 111.871094 257.058594 111.691406 C 256.46875 111.515625 255.890625 111.308594 255.324219 111.074219 C 254.757812 110.835938 254.203125 110.574219 253.660156 110.285156 C 253.121094 109.996094 252.59375 109.679688 252.082031 109.339844 C 251.574219 109 251.078125 108.632812 250.605469 108.242188 C 250.128906 107.855469 249.675781 107.441406 249.242188 107.007812 C 248.808594 106.574219 248.394531 106.121094 248.007812 105.644531 C 247.617188 105.171875 247.25 104.675781 246.910156 104.167969 C 246.570312 103.65625 246.253906 103.128906 245.964844 102.589844 C 245.675781 102.046875 245.414062 101.492188 245.175781 100.925781 C 244.941406 100.359375 244.734375 99.78125 244.558594 99.191406 C 244.378906 98.605469 244.230469 98.011719 244.109375 97.40625 C 243.992188 96.804688 243.902344 96.199219 243.839844 95.585938 C 243.78125 94.976562 243.75 94.363281 243.75 93.75 C 243.75 93.136719 243.78125 92.523438 243.839844 91.914062 C 243.902344 91.300781 243.992188 90.695312 244.109375 90.09375 C 244.230469 89.488281 244.378906 88.894531 244.558594 88.308594 C 244.734375 87.71875 244.941406 87.140625 245.175781 86.574219 C 245.414062 86.007812 245.675781 85.453125 245.964844 84.910156 C 246.253906 84.371094 246.570312 83.84375 246.910156 83.332031 C 247.25 82.824219 247.617188 82.328125 248.007812 81.855469 C 248.394531 81.378906 248.808594 80.925781 249.242188 80.492188 C 249.675781 80.058594 250.128906 79.644531 250.605469 79.257812 C 251.078125 78.867188 251.574219 78.5 252.082031 78.160156 C 252.59375 77.820312 253.121094 77.503906 253.660156 77.214844 C 254.203125 76.925781 254.757812 76.664062 255.324219 76.425781 C 255.890625 76.191406 256.46875 75.984375 257.058594 75.808594 C 257.644531 75.628906 258.238281 75.480469 258.84375 75.359375 C 259.445312 75.242188 260.050781 75.152344 260.664062 75.089844 C 261.273438 75.03125 261.886719 75 262.5 75 L 318.75 75 C 320.589844 75 322.429688 75.09375 324.261719 75.277344 C 326.09375 75.457031 327.914062 75.730469 329.71875 76.089844 C 331.527344 76.449219 333.308594 76.898438 335.070312 77.433594 C 336.835938 77.96875 338.566406 78.589844 340.265625 79.296875 C 341.96875 80.003906 343.632812 80.789062 345.253906 81.660156 C 346.878906 82.527344 348.457031 83.472656 349.988281 84.496094 C 351.519531 85.519531 352.996094 86.617188 354.417969 87.785156 C 355.84375 88.953125 357.207031 90.1875 358.507812 91.492188 C 359.8125 92.792969 361.046875 94.15625 362.214844 95.582031 C 363.382812 97.003906 364.480469 98.480469 365.503906 100.011719 C 366.527344 101.542969 367.472656 103.121094 368.339844 104.746094 C 369.210938 106.367188 369.996094 108.03125 370.703125 109.734375 C 371.410156 111.433594 372.03125 113.164062 372.566406 114.929688 C 373.101562 116.691406 373.550781 118.472656 373.910156 120.28125 C 374.269531 122.085938 374.542969 123.90625 374.722656 125.738281 C 374.90625 127.570312 375 129.410156 375 131.25 L 375 206.25 C 375 208.089844 374.90625 209.929688 374.722656 211.761719 C 374.542969 213.59375 374.269531 215.414062 373.910156 217.21875 C 373.550781 219.027344 373.101562 220.808594 372.566406 222.570312 C 372.03125 224.335938 371.410156 226.066406 370.703125 227.765625 C 369.996094 229.46875 369.210938 231.132812 368.339844 232.753906 C 367.472656 234.378906 366.527344 235.957031 365.503906 237.488281 C 364.480469 239.019531 363.382812 240.496094 362.214844 241.917969 C 361.046875 243.34375 359.8125 244.707031 358.507812 246.007812 C 357.207031 247.3125 355.84375 248.546875 354.417969 249.714844 C 352.996094 250.882812 351.519531 251.980469 349.988281 253.003906 C 348.457031 254.027344 346.878906 254.972656 345.253906 255.839844 C 343.632812 256.710938 341.96875 257.496094 340.265625 258.203125 C 338.566406 258.910156 336.835938 259.53125 335.070312 260.066406 C 333.308594 260.601562 331.527344 261.050781 329.71875 261.410156 C 327.914062 261.769531 326.09375 262.042969 324.261719 262.222656 C 322.429688 262.40625 320.589844 262.5 318.75 262.5 Z M 318.75 262.5 " fill-opacity="1" fill-rule="nonzero"/><path fill="#141418" d="M 225 375 L 150 375 C 148.160156 375 146.320312 374.90625 144.488281 374.722656 C 142.65625 374.542969 140.835938 374.269531 139.03125 373.910156 C 137.222656 373.550781 135.441406 373.101562 133.679688 372.566406 C 131.914062 372.03125 130.183594 371.410156 128.484375 370.703125 C 126.78125 369.996094 125.117188 369.210938 123.496094 368.339844 C 121.871094 367.472656 120.292969 366.527344 118.761719 365.503906 C 117.230469 364.480469 115.753906 363.382812 114.332031 362.214844 C 112.90625 361.046875 111.542969 359.8125 110.242188 358.507812 C 108.9375 357.207031 107.703125 355.84375 106.535156 354.417969 C 105.367188 352.996094 104.269531 351.519531 103.246094 349.988281 C 102.222656 348.457031 101.277344 346.878906 100.410156 345.253906 C 99.539062 343.632812 98.753906 341.96875 98.046875 340.265625 C 97.339844 338.566406 96.71875 336.835938 96.183594 335.070312 C 95.648438 333.308594 95.199219 331.527344 94.839844 329.71875 C 94.480469 327.914062 94.207031 326.09375 94.027344 324.261719 C 93.84375 322.429688 93.75 320.589844 93.75 318.75 L 93.75 225 C 93.75 223.160156 93.84375 221.320312 94.027344 219.488281 C 94.207031 217.65625 94.480469 215.835938 94.839844 214.03125 C 95.199219 212.222656 95.648438 210.441406 96.183594 208.675781 C 96.71875 206.914062 97.339844 205.183594 98.046875 203.484375 C 98.753906 201.78125 99.539062 200.117188 100.410156 198.496094 C 101.277344 196.871094 102.222656 195.292969 103.246094 193.761719 C 104.269531 192.230469 105.367188 190.753906 106.535156 189.332031 C 107.703125 187.90625 108.9375 186.542969 110.242188 185.242188 C 111.542969 183.9375 112.90625 182.703125 114.332031 181.535156 C 115.753906 180.367188 117.230469 179.269531 118.761719 178.246094 C 120.292969 177.222656 121.871094 176.277344 123.496094 175.410156 C 125.117188 174.539062 126.78125 173.753906 128.484375 173.046875 C 130.183594 172.339844 131.914062 171.71875 133.679688 171.183594 C 135.441406 170.648438 137.222656 170.199219 139.03125 169.839844 C 140.835938 169.480469 142.65625 169.207031 144.488281 169.027344 C 146.320312 168.84375 148.160156 168.75 150 168.75 L 225 168.75 C 225.613281 168.75 226.226562 168.71875 226.835938 168.660156 C 227.449219 168.597656 228.054688 168.507812 228.65625 168.390625 C 229.261719 168.269531 229.855469 168.121094 230.441406 167.941406 C 231.03125 167.765625 231.609375 167.558594 232.175781 167.324219 C 232.742188 167.085938 233.296875 166.824219 233.839844 166.535156 C 234.378906 166.246094 234.90625 165.929688 235.417969 165.589844 C 235.925781 165.25 236.421875 164.882812 236.894531 164.492188 C 237.371094 164.105469 237.824219 163.691406 238.257812 163.257812 C 238.691406 162.824219 239.105469 162.371094 239.492188 161.894531 C 239.882812 161.421875 240.25 160.925781 240.589844 160.417969 C 240.929688 159.90625 241.246094 159.378906 241.535156 158.839844 C 241.824219 158.296875 242.085938 157.742188 242.324219 157.175781 C 242.558594 156.609375 242.765625 156.03125 242.941406 155.441406 C 243.121094 154.855469 243.269531 154.261719 243.390625 153.65625 C 243.507812 153.054688 243.597656 152.449219 243.660156 151.835938 C 243.71875 151.226562 243.75 150.613281 243.75 150 L 243.75 56.25 C 243.75 55.636719 243.71875 55.023438 243.660156 54.414062 C 243.597656 53.800781 243.507812 53.195312 243.390625 52.59375 C 243.269531 51.988281 243.121094 51.394531 242.941406 50.808594 C 242.765625 50.21875 242.558594 49.640625 242.324219 49.074219 C 242.085938 48.507812 241.824219 47.953125 241.535156 47.410156 C 241.246094 46.871094 240.929688 46.34375 240.589844 45.832031 C 240.25 45.324219 239.882812 44.828125 239.492188 44.355469 C 239.105469 43.878906 238.691406 43.425781 238.257812 42.992188 C 237.824219 42.558594 237.371094 42.144531 236.894531 41.757812 C 236.421875 41.367188 235.925781 41 235.417969 40.660156 C 234.90625 40.320312 234.378906 40.003906 233.839844 39.714844 C 233.296875 39.425781 232.742188 39.164062 232.175781 38.925781 C 231.609375 38.691406 231.03125 38.484375 230.441406 38.308594 C 229.855469 38.128906 229.261719 37.980469 228.65625 37.859375 C 228.054688 37.742188 227.449219 37.652344 226.835938 37.589844 C 226.226562 37.53125 225.613281 37.5 225 37.5 L 150 37.5 C 149.386719 37.5 148.773438 37.53125 148.164062 37.589844 C 147.550781 37.652344 146.945312 37.742188 146.34375 37.859375 C 145.738281 37.980469 145.144531 38.128906 144.558594 38.308594 C 143.96875 38.484375 143.390625 38.691406 142.824219 38.925781 C 142.257812 39.164062 141.703125 39.425781 141.160156 39.714844 C 140.621094 40.003906 140.09375 40.320312 139.582031 40.660156 C 139.074219 41 138.578125 41.367188 138.105469 41.757812 C 137.628906 42.144531 137.175781 42.558594 136.742188 42.992188 C 136.308594 43.425781 135.894531 43.878906 135.507812 44.355469 C 135.117188 44.828125 134.75 45.324219 134.410156 45.832031 C 134.070312 46.34375 133.753906 46.871094 133.464844 47.410156 C 133.175781 47.953125 132.914062 48.507812 132.675781 49.074219 C 132.441406 49.640625 132.234375 50.21875 132.058594 50.808594 C 131.878906 51.394531 131.730469 51.988281 131.609375 52.59375 C 131.492188 53.195312 131.402344 53.800781 131.339844 54.414062 C 131.28125 55.023438 131.25 55.636719 131.25 56.25 L 131.25 131.25 C 131.25 131.863281 131.21875 132.476562 131.160156 133.085938 C 131.097656 133.699219 131.007812 134.304688 130.890625 134.90625 C 130.769531 135.511719 130.621094 136.105469 130.441406 136.691406 C 130.265625 137.28125 130.058594 137.859375 129.824219 138.425781 C 129.585938 138.992188 129.324219 139.546875 129.035156 140.089844 C 128.746094 140.628906 128.429688 141.15625 128.089844 141.667969 C 127.75 142.175781 127.382812 142.671875 126.992188 143.144531 C 126.605469 143.621094 126.191406 144.074219 125.757812 144.507812 C 125.324219 144.941406 124.871094 145.355469 124.394531 145.742188 C 123.921875 146.132812 123.425781 146.5 122.917969 146.839844 C 122.40625 147.179688 121.878906 147.496094 121.339844 147.785156 C 120.796875 148.074219 120.242188 148.335938 119.675781 148.574219 C 119.109375 148.808594 118.53125 149.015625 117.941406 149.191406 C 117.355469 149.371094 116.761719 149.519531 116.15625 149.640625 C 115.554688 149.757812 114.949219 149.847656 114.335938 149.910156 C 113.726562 149.96875 113.113281 150 112.5 150 C 111.886719 150 111.273438 149.96875 110.664062 149.910156 C 110.050781 149.847656 109.445312 149.757812 108.84375 149.640625 C 108.238281 149.519531 107.644531 149.371094 107.058594 149.191406 C 106.46875 149.015625 105.890625 148.808594 105.324219 148.574219 C 104.757812 148.335938 104.203125 148.074219 103.660156 147.785156 C 103.121094 147.496094 102.59375 147.179688 102.082031 146.839844 C 101.574219 146.5 101.078125 146.132812 100.605469 145.742188 C 100.128906 145.355469 99.675781 144.941406 99.242188 144.507812 C 98.808594 144.074219 98.394531 143.621094 98.007812 143.144531 C 97.617188 142.671875 97.25 142.175781 96.910156 141.667969 C 96.570312 141.15625 96.253906 140.628906 95.964844 140.089844 C 95.675781 139.546875 95.414062 138.992188 95.175781 138.425781 C 94.941406 137.859375 94.734375 137.28125 94.558594 136.691406 C 94.378906 136.105469 94.230469 135.511719 94.109375 134.90625 C 93.992188 134.304688 93.902344 133.699219 93.839844 133.085938 C 93.78125 132.476562 93.75 131.863281 93.75 131.25 L 93.75 56.25 C 93.75 54.410156 93.84375 52.570312 94.027344 50.738281 C 94.207031 48.90625 94.480469 47.085938 94.839844 45.28125 C 95.199219 43.472656 95.648438 41.691406 96.183594 39.929688 C 96.71875 38.164062 97.339844 36.433594 98.046875 34.734375 C 98.753906 33.03125 99.539062 31.367188 100.410156 29.746094 C 101.277344 28.121094 102.222656 26.542969 103.246094 25.011719 C 104.269531 23.480469 105.367188 22.003906 106.535156 20.582031 C 107.703125 19.15625 108.9375 17.792969 110.242188 16.492188 C 111.542969 15.1875 112.90625 13.953125 114.332031 12.785156 C 115.753906 11.617188 117.230469 10.519531 118.761719 9.496094 C 120.292969 8.472656 121.871094 7.527344 123.496094 6.660156 C 125.117188 5.789062 126.78125 5.003906 128.484375 4.296875 C 130.183594 3.589844 131.914062 2.96875 133.679688 2.433594 C 135.441406 1.898438 137.222656 1.449219 139.03125 1.089844 C 140.835938 0.730469 142.65625 0.457031 144.488281 0.277344 C 146.320312 0.09375 148.160156 0 150 0 L 225 0 C 226.839844 0 228.679688 0.09375 230.511719 0.277344 C 232.34375 0.457031 234.164062 0.730469 235.96875 1.089844 C 237.777344 1.449219 239.558594 1.898438 241.320312 2.433594 C 243.085938 2.96875 244.816406 3.589844 246.515625 4.296875 C 248.21875 5.003906 249.882812 5.789062 251.503906 6.660156 C 253.128906 7.527344 254.707031 8.472656 256.238281 9.496094 C 257.769531 10.519531 259.246094 11.617188 260.667969 12.785156 C 262.09375 13.953125 263.457031 15.1875 264.757812 16.492188 C 266.0625 17.792969 267.296875 19.15625 268.464844 20.582031 C 269.632812 22.003906 270.730469 23.480469 271.753906 25.011719 C 272.777344 26.542969 273.722656 28.121094 274.589844 29.746094 C 275.460938 31.367188 276.246094 33.03125 276.953125 34.734375 C 277.660156 36.433594 278.28125 38.164062 278.816406 39.929688 C 279.351562 41.691406 279.800781 43.472656 280.160156 45.28125 C 280.519531 47.085938 280.792969 48.90625 280.972656 50.738281 C 281.15625 52.570312 281.25 54.410156 281.25 56.25 L 281.25 150 C 281.25 151.839844 281.15625 153.679688 280.972656 155.511719 C 280.792969 157.34375 280.519531 159.164062 280.160156 160.96875 C 279.800781 162.777344 279.351562 164.558594 278.816406 166.320312 C 278.28125 168.085938 277.660156 169.816406 276.953125 171.515625 C 276.246094 173.21875 275.460938 174.882812 274.589844 176.503906 C 273.722656 178.128906 272.777344 179.707031 271.753906 181.238281 C 270.730469 182.769531 269.632812 184.246094 268.464844 185.667969 C 267.296875 187.09375 266.0625 188.457031 264.757812 189.757812 C 263.457031 191.0625 262.09375 192.296875 260.667969 193.464844 C 259.246094 194.632812 257.769531 195.730469 256.238281 196.753906 C 254.707031 197.777344 253.128906 198.722656 251.503906 199.589844 C 249.882812 200.460938 248.21875 201.246094 246.515625 201.953125 C 244.816406 202.660156 243.085938 203.28125 241.320312 203.816406 C 239.558594 204.351562 237.777344 204.800781 235.96875 205.160156 C 234.164062 205.519531 232.34375 205.792969 230.511719 205.972656 C 228.679688 206.15625 226.839844 206.25 225 206.25 L 150 206.25 C 149.386719 206.25 148.773438 206.28125 148.164062 206.339844 C 147.550781 206.402344 146.945312 206.492188 146.34375 206.609375 C 145.738281 206.730469 145.144531 206.878906 144.558594 207.058594 C 143.96875 207.234375 143.390625 207.441406 142.824219 207.675781 C 142.257812 207.914062 141.703125 208.175781 141.160156 208.464844 C 140.621094 208.753906 140.09375 209.070312 139.582031 209.410156 C 139.074219 209.75 138.578125 210.117188 138.105469 210.507812 C 137.628906 210.894531 137.175781 211.308594 136.742188 211.742188 C 136.308594 212.175781 135.894531 212.628906 135.507812 213.105469 C 135.117188 213.578125 134.75 214.074219 134.410156 214.582031 C 134.070312 215.09375 133.753906 215.621094 133.464844 216.160156 C 133.175781 216.703125 132.914062 217.257812 132.675781 217.824219 C 132.441406 218.390625 132.234375 218.96875 132.058594 219.558594 C 131.878906 220.144531 131.730469 220.738281 131.609375 221.34375 C 131.492188 221.945312 131.402344 222.550781 131.339844 223.164062 C 131.28125 223.773438 131.25 224.386719 131.25 225 L 131.25 318.75 C 131.25 319.363281 131.28125 319.976562 131.339844 320.585938 C 131.402344 321.199219 131.492188 321.804688 131.609375 322.40625 C 131.730469 323.011719 131.878906 323.605469 132.058594 324.191406 C 132.234375 324.78125 132.441406 325.359375 132.675781 325.925781 C 132.914062 326.492188 133.175781 327.046875 133.464844 327.589844 C 133.753906 328.128906 134.070312 328.65625 134.410156 329.167969 C 134.75 329.675781 135.117188 330.171875 135.507812 330.644531 C 135.894531 331.121094 136.308594 331.574219 136.742188 332.007812 C 137.175781 332.441406 137.628906 332.855469 138.105469 333.242188 C 138.578125 333.632812 139.074219 334 139.582031 334.339844 C 140.09375 334.679688 140.621094 334.996094 141.160156 335.285156 C 141.703125 335.574219 142.257812 335.835938 142.824219 336.074219 C 143.390625 336.308594 143.96875 336.515625 144.558594 336.691406 C 145.144531 336.871094 145.738281 337.019531 146.34375 337.140625 C 146.945312 337.257812 147.550781 337.347656 148.164062 337.410156 C 148.773438 337.46875 149.386719 337.5 150 337.5 L 225 337.5 C 225.613281 337.5 226.226562 337.46875 226.835938 337.410156 C 227.449219 337.347656 228.054688 337.257812 228.65625 337.140625 C 229.261719 337.019531 229.855469 336.871094 230.441406 336.691406 C 231.03125 336.515625 231.609375 336.308594 232.175781 336.074219 C 232.742188 335.835938 233.296875 335.574219 233.839844 335.285156 C 234.378906 334.996094 234.90625 334.679688 235.417969 334.339844 C 235.925781 334 236.421875 333.632812 236.894531 333.242188 C 237.371094 332.855469 237.824219 332.441406 238.257812 332.007812 C 238.691406 331.574219 239.105469 331.121094 239.492188 330.644531 C 239.882812 330.171875 240.25 329.675781 240.589844 329.167969 C 240.929688 328.65625 241.246094 328.128906 241.535156 327.589844 C 241.824219 327.046875 242.085938 326.492188 242.324219 325.925781 C 242.558594 325.359375 242.765625 324.78125 242.941406 324.191406 C 243.121094 323.605469 243.269531 323.011719 243.390625 322.40625 C 243.507812 321.804688 243.597656 321.199219 243.660156 320.585938 C 243.71875 319.976562 243.75 319.363281 243.75 318.75 L 243.75 243.75 C 243.75 243.136719 243.78125 242.523438 243.839844 241.914062 C 243.902344 241.300781 243.992188 240.695312 244.109375 240.09375 C 244.230469 239.488281 244.378906 238.894531 244.558594 238.308594 C 244.734375 237.71875 244.941406 237.140625 245.175781 236.574219 C 245.414062 236.007812 245.675781 235.453125 245.964844 234.910156 C 246.253906 234.371094 246.570312 233.84375 246.910156 233.332031 C 247.25 232.824219 247.617188 232.328125 248.007812 231.855469 C 248.394531 231.378906 248.808594 230.925781 249.242188 230.492188 C 249.675781 230.058594 250.128906 229.644531 250.605469 229.257812 C 251.078125 228.867188 251.574219 228.5 252.082031 228.160156 C 252.59375 227.820312 253.121094 227.503906 253.660156 227.214844 C 254.203125 226.925781 254.757812 226.664062 255.324219 226.425781 C 255.890625 226.191406 256.46875 225.984375 257.058594 225.808594 C 257.644531 225.628906 258.238281 225.480469 258.84375 225.359375 C 259.445312 225.242188 260.050781 225.152344 260.664062 225.089844 C 261.273438 225.03125 261.886719 225 262.5 225 C 263.113281 225 263.726562 225.03125 264.335938 225.089844 C 264.949219 225.152344 265.554688 225.242188 266.15625 225.359375 C 266.761719 225.480469 267.355469 225.628906 267.941406 225.808594 C 268.53125 225.984375 269.109375 226.191406 269.675781 226.425781 C 270.242188 226.664062 270.796875 226.925781 271.339844 227.214844 C 271.878906 227.503906 272.40625 227.820312 272.917969 228.160156 C 273.425781 228.5 273.921875 228.867188 274.394531 229.257812 C 274.871094 229.644531 275.324219 230.058594 275.757812 230.492188 C 276.191406 230.925781 276.605469 231.378906 276.992188 231.855469 C 277.382812 232.328125 277.75 232.824219 278.089844 233.332031 C 278.429688 233.84375 278.746094 234.371094 279.035156 234.910156 C 279.324219 235.453125 279.585938 236.007812 279.824219 236.574219 C 280.058594 237.140625 280.265625 237.71875 280.441406 238.308594 C 280.621094 238.894531 280.769531 239.488281 280.890625 240.09375 C 281.007812 240.695312 281.097656 241.300781 281.160156 241.914062 C 281.21875 242.523438 281.25 243.136719 281.25 243.75 L 281.25 318.75 C 281.25 320.589844 281.15625 322.429688 280.972656 324.261719 C 280.792969 326.09375 280.519531 327.914062 280.160156 329.71875 C 279.800781 331.527344 279.351562 333.308594 278.816406 335.070312 C 278.28125 336.835938 277.660156 338.566406 276.953125 340.265625 C 276.246094 341.96875 275.460938 343.632812 274.589844 345.253906 C 273.722656 346.878906 272.777344 348.457031 271.753906 349.988281 C 270.730469 351.519531 269.632812 352.996094 268.464844 354.417969 C 267.296875 355.84375 266.0625 357.207031 264.757812 358.507812 C 263.457031 359.8125 262.09375 361.046875 260.667969 362.214844 C 259.246094 363.382812 257.769531 364.480469 256.238281 365.503906 C 254.707031 366.527344 253.128906 367.472656 251.503906 368.339844 C 249.882812 369.210938 248.21875 369.996094 246.515625 370.703125 C 244.816406 371.410156 243.085938 372.03125 241.320312 372.566406 C 239.558594 373.101562 237.777344 373.550781 235.96875 373.910156 C 234.164062 374.269531 232.34375 374.542969 230.511719 374.722656 C 228.679688 374.90625 226.839844 375 225 375 Z M 225 375 " fill-opacity="1" fill-rule="nonzero"/><path fill="#141418" d="M 168.75 93.9375 C 168.136719 93.9375 167.519531 93.910156 166.910156 93.851562 C 166.296875 93.792969 165.6875 93.703125 165.085938 93.585938 C 164.480469 93.46875 163.886719 93.320312 163.296875 93.144531 C 162.707031 92.964844 162.128906 92.761719 161.558594 92.527344 C 160.992188 92.292969 160.4375 92.03125 159.890625 91.746094 C 159.347656 91.457031 158.820312 91.140625 158.308594 90.800781 C 157.796875 90.460938 157.300781 90.097656 156.824219 89.707031 C 156.347656 89.320312 155.890625 88.910156 155.457031 88.476562 C 155.019531 88.042969 154.605469 87.589844 154.214844 87.113281 C 153.824219 86.640625 153.453125 86.148438 153.113281 85.636719 C 152.769531 85.128906 152.449219 84.601562 152.160156 84.0625 C 151.867188 83.519531 151.601562 82.964844 151.363281 82.398438 C 151.128906 81.832031 150.917969 81.253906 150.738281 80.664062 C 150.554688 80.078125 150.40625 79.484375 150.28125 78.878906 C 150.160156 78.277344 150.066406 77.671875 150.003906 77.058594 C 149.941406 76.445312 149.910156 75.832031 149.90625 75.21875 C 149.90625 74.605469 149.933594 73.988281 149.988281 73.378906 C 150.046875 72.765625 150.136719 72.15625 150.253906 71.554688 C 150.371094 70.949219 150.515625 70.355469 150.691406 69.765625 C 150.867188 69.175781 151.074219 68.597656 151.304688 68.027344 C 151.539062 67.457031 151.796875 66.902344 152.085938 66.355469 C 152.371094 65.8125 152.6875 65.285156 153.023438 64.773438 C 153.363281 64.257812 153.726562 63.765625 154.117188 63.285156 C 154.503906 62.808594 154.914062 62.351562 155.347656 61.914062 C 155.777344 61.480469 156.230469 61.0625 156.707031 60.671875 C 157.179688 60.277344 157.671875 59.910156 158.179688 59.566406 C 158.6875 59.222656 159.214844 58.902344 159.753906 58.609375 C 160.296875 58.316406 160.851562 58.050781 161.417969 57.8125 C 161.984375 57.574219 162.5625 57.363281 163.148438 57.183594 C 163.734375 57 164.332031 56.847656 164.933594 56.726562 C 165.535156 56.601562 166.144531 56.507812 166.753906 56.445312 C 167.367188 56.382812 167.980469 56.347656 168.59375 56.34375 C 169.210938 56.339844 169.824219 56.367188 170.433594 56.421875 C 171.046875 56.480469 171.65625 56.566406 172.257812 56.683594 C 172.863281 56.800781 173.460938 56.945312 174.050781 57.121094 C 174.640625 57.296875 175.21875 57.5 175.789062 57.730469 C 176.359375 57.960938 176.914062 58.222656 177.460938 58.507812 C 178.003906 58.792969 178.53125 59.105469 179.046875 59.445312 C 179.558594 59.78125 180.054688 60.144531 180.53125 60.53125 C 181.011719 60.917969 181.46875 61.328125 181.90625 61.761719 C 182.34375 62.191406 182.757812 62.644531 183.152344 63.117188 C 183.546875 63.589844 183.914062 64.082031 184.261719 64.589844 C 184.605469 65.101562 184.925781 65.625 185.21875 66.164062 C 185.511719 66.703125 185.777344 67.257812 186.019531 67.824219 C 186.257812 68.390625 186.46875 68.96875 186.652344 69.554688 C 186.835938 70.144531 186.988281 70.738281 187.113281 71.339844 C 187.238281 71.941406 187.332031 72.546875 187.394531 73.160156 C 187.460938 73.773438 187.496094 74.386719 187.5 75 L 187.5 75.1875 C 187.5 75.800781 187.46875 76.414062 187.410156 77.023438 C 187.347656 77.636719 187.257812 78.242188 187.140625 78.84375 C 187.019531 79.449219 186.871094 80.042969 186.691406 80.628906 C 186.515625 81.21875 186.308594 81.796875 186.074219 82.363281 C 185.835938 82.929688 185.574219 83.484375 185.285156 84.027344 C 184.996094 84.566406 184.679688 85.09375 184.339844 85.605469 C 184 86.113281 183.632812 86.609375 183.242188 87.082031 C 182.855469 87.558594 182.441406 88.011719 182.007812 88.445312 C 181.574219 88.878906 181.121094 89.292969 180.644531 89.679688 C 180.171875 90.070312 179.675781 90.4375 179.167969 90.777344 C 178.65625 91.117188 178.128906 91.433594 177.589844 91.722656 C 177.046875 92.011719 176.492188 92.273438 175.925781 92.511719 C 175.359375 92.746094 174.78125 92.953125 174.191406 93.128906 C 173.605469 93.308594 173.011719 93.457031 172.40625 93.578125 C 171.804688 93.695312 171.199219 93.785156 170.585938 93.847656 C 169.976562 93.90625 169.363281 93.9375 168.75 93.9375 Z M 168.75 93.9375 " fill-opacity="1" fill-rule="nonzero"/><path fill="#141418" d="M 206.25 318.9375 C 205.636719 318.9375 205.019531 318.910156 204.410156 318.851562 C 203.796875 318.792969 203.1875 318.703125 202.585938 318.585938 C 201.984375 318.46875 201.386719 318.320312 200.796875 318.144531 C 200.207031 317.964844 199.628906 317.761719 199.058594 317.527344 C 198.492188 317.292969 197.9375 317.03125 197.390625 316.746094 C 196.847656 316.457031 196.320312 316.140625 195.808594 315.800781 C 195.296875 315.460938 194.800781 315.097656 194.324219 314.707031 C 193.847656 314.320312 193.390625 313.910156 192.957031 313.476562 C 192.519531 313.042969 192.105469 312.589844 191.714844 312.113281 C 191.324219 311.640625 190.953125 311.148438 190.613281 310.636719 C 190.269531 310.128906 189.949219 309.601562 189.660156 309.0625 C 189.367188 308.519531 189.101562 307.964844 188.863281 307.398438 C 188.628906 306.832031 188.417969 306.253906 188.238281 305.664062 C 188.054688 305.078125 187.90625 304.484375 187.78125 303.878906 C 187.660156 303.277344 187.566406 302.671875 187.503906 302.058594 C 187.441406 301.445312 187.410156 300.832031 187.40625 300.21875 C 187.40625 299.601562 187.433594 298.988281 187.488281 298.378906 C 187.546875 297.765625 187.636719 297.15625 187.753906 296.554688 C 187.871094 295.949219 188.015625 295.355469 188.191406 294.765625 C 188.367188 294.175781 188.574219 293.597656 188.804688 293.027344 C 189.039062 292.457031 189.296875 291.902344 189.585938 291.355469 C 189.871094 290.8125 190.1875 290.285156 190.523438 289.773438 C 190.863281 289.257812 191.226562 288.765625 191.617188 288.285156 C 192.003906 287.808594 192.414062 287.351562 192.847656 286.914062 C 193.277344 286.480469 193.730469 286.0625 194.207031 285.671875 C 194.679688 285.277344 195.171875 284.910156 195.679688 284.566406 C 196.1875 284.222656 196.714844 283.902344 197.253906 283.609375 C 197.796875 283.316406 198.351562 283.050781 198.917969 282.8125 C 199.484375 282.574219 200.0625 282.367188 200.648438 282.183594 C 201.234375 282 201.832031 281.847656 202.433594 281.726562 C 203.035156 281.601562 203.644531 281.507812 204.253906 281.445312 C 204.867188 281.382812 205.480469 281.347656 206.09375 281.34375 C 206.710938 281.339844 207.324219 281.367188 207.933594 281.421875 C 208.546875 281.480469 209.15625 281.566406 209.757812 281.683594 C 210.363281 281.800781 210.960938 281.945312 211.550781 282.121094 C 212.140625 282.296875 212.71875 282.5 213.289062 282.730469 C 213.859375 282.960938 214.414062 283.222656 214.960938 283.507812 C 215.503906 283.792969 216.03125 284.105469 216.546875 284.445312 C 217.058594 284.78125 217.554688 285.144531 218.03125 285.53125 C 218.511719 285.917969 218.96875 286.328125 219.40625 286.761719 C 219.84375 287.191406 220.257812 287.644531 220.652344 288.117188 C 221.046875 288.589844 221.414062 289.082031 221.761719 289.589844 C 222.105469 290.101562 222.425781 290.625 222.71875 291.164062 C 223.011719 291.707031 223.277344 292.257812 223.519531 292.824219 C 223.757812 293.390625 223.96875 293.96875 224.152344 294.554688 C 224.335938 295.144531 224.488281 295.738281 224.613281 296.339844 C 224.738281 296.941406 224.832031 297.546875 224.894531 298.160156 C 224.960938 298.773438 224.996094 299.386719 225 300 L 225 300.1875 C 225 300.800781 224.96875 301.414062 224.910156 302.023438 C 224.847656 302.636719 224.757812 303.242188 224.640625 303.84375 C 224.519531 304.449219 224.371094 305.042969 224.191406 305.628906 C 224.015625 306.21875 223.808594 306.796875 223.574219 307.363281 C 223.335938 307.929688 223.074219 308.484375 222.785156 309.027344 C 222.496094 309.566406 222.179688 310.09375 221.839844 310.605469 C 221.5 311.113281 221.132812 311.609375 220.742188 312.082031 C 220.355469 312.558594 219.941406 313.011719 219.507812 313.445312 C 219.074219 313.878906 218.621094 314.292969 218.144531 314.679688 C 217.671875 315.070312 217.175781 315.4375 216.667969 315.777344 C 216.15625 316.117188 215.628906 316.433594 215.089844 316.722656 C 214.546875 317.011719 213.992188 317.273438 213.425781 317.511719 C 212.859375 317.746094 212.28125 317.953125 211.691406 318.128906 C 211.105469 318.308594 210.511719 318.457031 209.90625 318.578125 C 209.304688 318.695312 208.699219 318.785156 208.085938 318.847656 C 207.476562 318.90625 206.863281 318.9375 206.25 318.9375 Z M 206.25 318.9375 " fill-opacity="1" fill-rule="nonzero"/></svg>