<svg xmlns="http://www.w3.org/2000/svg" xmlns:xlink="http://www.w3.org/1999/xlink" width="500" zoomAndPan="magnify" viewBox="0 0 375 374.999991" height="500" preserveAspectRatio="xMidYMid meet" version="1.0"><defs><clipPath id="id1"><path d="M 62.578125 0 L 312.328125 0 L 312.328125 375 L 62.578125 375 Z M 62.578125 0 " clip-rule="nonzero"/></clipPath></defs><g clip-path="url(#id1)"><path fill="#141418" d="M 224.914062 293.683594 L 224.914062 306.175781 L 149.992188 306.175781 L 149.992188 293.683594 Z M 150.429688 140.335938 L 146.769531 138.3125 C 143.769531 136.628906 139.964844 137.726562 138.308594 140.75 C 136.625 143.753906 137.699219 147.558594 140.722656 149.242188 L 144.40625 151.269531 C 151.476562 155.148438 157.453125 158.441406 162.429688 163.148438 C 162.257812 163.320312 162.136719 163.492188 161.964844 163.664062 C 157.867188 167.859375 152.796875 168.761719 149.234375 168.761719 C 149.210938 168.761719 149.1875 168.761719 149.1875 168.761719 C 142.308594 168.738281 135.234375 165.46875 129.746094 159.808594 C 117.355469 147.070312 113.773438 130.113281 112.84375 118.890625 C 115.820312 120.671875 119.332031 122.429688 123.234375 123.769531 C 128.796875 125.671875 134.113281 125.648438 139.089844 125.671875 C 147.550781 125.699219 154.0625 125.648438 161.941406 133.796875 C 167.378906 139.386719 169.527344 145.65625 168.378906 151.828125 C 163.234375 147.582031 157.257812 144.070312 150.429688 140.335938 Z M 206.722656 102.566406 C 214.304688 94.710938 220.746094 94.441406 228.671875 94.441406 C 228.988281 94.441406 229.28125 94.441406 229.574219 94.441406 C 234.621094 94.441406 239.867188 94.441406 245.425781 92.539062 C 249.355469 91.199219 252.867188 89.417969 255.867188 87.636719 C 254.9375 98.835938 251.355469 115.765625 238.914062 128.578125 C 233.425781 134.238281 226.355469 137.507812 219.476562 137.53125 C 219.476562 137.53125 219.453125 137.53125 219.429688 137.53125 C 217.453125 137.53125 214.988281 137.164062 212.476562 136.1875 C 217.84375 129.359375 224.332031 124.84375 231.964844 119.574219 L 234.71875 117.671875 C 237.550781 115.71875 238.257812 111.816406 236.28125 108.984375 C 234.328125 106.15625 230.425781 105.445312 227.597656 107.421875 L 224.867188 109.300781 C 216.453125 115.109375 209.136719 120.183594 203.0625 127.675781 C 197.941406 119.355469 199.160156 110.351562 206.722656 102.566406 Z M 131.257812 274.945312 L 131.257812 267.503906 C 131.257812 243.421875 121.722656 219.683594 104.40625 200.722656 C 85.480469 179.9375 75.066406 153.074219 75.066406 125.039062 C 75.066406 63.042969 125.480469 12.609375 187.453125 12.609375 C 249.425781 12.609375 299.839844 63.042969 299.839844 125.039062 C 299.839844 153.074219 289.425781 179.9375 270.5 200.699219 C 253.183594 219.683594 243.648438 243.421875 243.648438 267.503906 L 243.648438 274.945312 C 243.648438 278.386719 240.84375 281.191406 237.402344 281.191406 L 193.695312 281.191406 L 193.695312 262.476562 C 193.695312 262.476562 193.695312 262.476562 193.695312 262.453125 C 193.695312 262.183594 193.695312 261.941406 193.695312 261.695312 C 193.746094 196.160156 197.84375 164.90625 206.039062 146.925781 C 210.109375 148.902344 214.625 150.023438 219.429688 150.023438 C 219.453125 150.023438 219.476562 150.023438 219.527344 150.023438 C 229.746094 150 240.085938 145.339844 247.867188 137.289062 C 272.160156 112.328125 268.5 75.925781 268.355469 74.410156 C 268.085938 71.996094 266.476562 69.945312 264.183594 69.164062 C 261.890625 68.359375 259.355469 68.96875 257.671875 70.703125 C 257.597656 70.777344 250.914062 77.4375 241.378906 80.730469 C 237.792969 81.949219 234.011719 81.925781 229.574219 81.949219 C 220.621094 82.023438 209.332031 81.925781 197.746094 93.855469 C 185.039062 106.933594 184.0625 124.40625 195.183594 138.238281 C 195.402344 138.507812 195.671875 138.777344 195.867188 139.019531 C 191.402344 148.144531 187.917969 160.34375 185.453125 177.910156 C 183.355469 171.59375 180.84375 166.492188 177.917969 162.199219 C 183.792969 149.828125 181.476562 135.96875 170.917969 125.085938 C 159.332031 113.15625 147.917969 113.132812 139.089844 113.179688 C 134.601562 113.15625 130.867188 113.179688 127.285156 111.960938 C 117.773438 108.691406 111.136719 102.078125 110.992188 101.933594 C 109.285156 100.199219 106.746094 99.589844 104.480469 100.394531 C 102.1875 101.175781 100.578125 103.226562 100.308594 105.640625 C 100.164062 107.15625 96.503906 143.558594 120.773438 168.492188 C 128.578125 176.570312 138.917969 181.230469 149.136719 181.253906 C 149.1875 181.253906 149.210938 181.253906 149.234375 181.253906 C 157.210938 181.253906 164.503906 178.324219 170.015625 173.128906 C 177.574219 187.109375 181.160156 211.363281 181.210938 261.695312 C 181.210938 261.964844 181.210938 262.210938 181.210938 262.453125 L 181.210938 281.191406 L 137.503906 281.191406 C 134.0625 281.191406 131.257812 278.386719 131.257812 274.945312 Z M 218.671875 331.160156 L 156.234375 331.160156 C 152.796875 331.160156 149.992188 328.355469 149.992188 324.914062 L 149.992188 318.667969 L 224.914062 318.667969 L 224.914062 324.914062 C 224.914062 328.355469 222.109375 331.160156 218.671875 331.160156 Z M 187.453125 362.390625 C 175.867188 362.390625 166.160156 354.386719 163.378906 343.652344 L 211.550781 343.652344 C 208.746094 354.386719 199.0625 362.390625 187.453125 362.390625 Z M 137.503906 324.914062 C 137.503906 333.183594 142.941406 340.164062 150.40625 342.628906 C 152.941406 360.828125 168.574219 374.882812 187.453125 374.882812 C 206.355469 374.882812 221.964844 360.828125 224.5 342.628906 C 231.988281 340.164062 237.402344 333.183594 237.402344 324.914062 L 237.402344 293.683594 C 247.746094 293.683594 256.132812 285.289062 256.132812 274.945312 L 256.132812 267.503906 C 256.132812 246.546875 264.523438 225.804688 279.742188 209.140625 C 300.742188 186.058594 312.328125 156.195312 312.328125 125.039062 C 312.328125 56.160156 256.304688 0.117188 187.453125 0.117188 C 118.601562 0.117188 62.578125 56.160156 62.578125 125.039062 C 62.578125 156.195312 74.164062 186.058594 95.1875 209.140625 C 110.382812 225.804688 118.773438 246.546875 118.773438 267.503906 L 118.773438 274.945312 C 118.773438 285.289062 127.160156 293.683594 137.503906 293.683594 L 137.503906 324.914062 " fill-opacity="1" fill-rule="nonzero"/></g></svg>