<svg xmlns="http://www.w3.org/2000/svg" xmlns:xlink="http://www.w3.org/1999/xlink" width="500" zoomAndPan="magnify" viewBox="0 0 375 374.999991" height="500" preserveAspectRatio="xMidYMid meet" version="1.0"><path fill="#cfcece" d="M 187.5 375 C 84.113281 375 0 290.886719 0 187.5 C 0 84.113281 84.113281 0 187.5 0 C 290.886719 0 375 84.113281 375 187.5 C 375 290.886719 290.886719 375 187.5 375 Z M 187.5 17.859375 C 93.957031 17.859375 17.859375 93.957031 17.859375 187.5 C 17.859375 281.039062 93.957031 357.140625 187.5 357.140625 C 281.039062 357.140625 357.140625 281.039062 357.140625 187.5 C 357.140625 93.957031 281.039062 17.859375 187.5 17.859375 Z M 187.5 17.859375 " fill-opacity="1" fill-rule="nonzero"/><path fill="#cfcece" d="M 56.546875 182.359375 C 56.453125 182.484375 56.355469 182.605469 56.269531 182.734375 C 56.1875 182.859375 56.117188 182.988281 56.042969 183.113281 C 55.972656 183.230469 55.898438 183.34375 55.832031 183.464844 C 55.765625 183.59375 55.707031 183.726562 55.644531 183.859375 C 55.585938 183.984375 55.523438 184.105469 55.46875 184.234375 C 55.417969 184.359375 55.375 184.492188 55.328125 184.621094 C 55.277344 184.757812 55.226562 184.894531 55.183594 185.035156 C 55.144531 185.164062 55.117188 185.296875 55.082031 185.429688 C 55.046875 185.570312 55.003906 185.714844 54.976562 185.859375 C 54.945312 186.007812 54.929688 186.160156 54.90625 186.3125 C 54.890625 186.441406 54.863281 186.566406 54.851562 186.695312 C 54.796875 187.265625 54.796875 187.835938 54.851562 188.40625 C 54.867188 188.535156 54.890625 188.664062 54.90625 188.789062 C 54.929688 188.945312 54.945312 189.09375 54.976562 189.246094 C 55.007812 189.390625 55.046875 189.53125 55.082031 189.675781 C 55.117188 189.804688 55.144531 189.9375 55.183594 190.070312 C 55.222656 190.207031 55.277344 190.34375 55.328125 190.480469 C 55.375 190.609375 55.417969 190.738281 55.46875 190.871094 C 55.523438 190.996094 55.585938 191.117188 55.640625 191.242188 C 55.703125 191.375 55.761719 191.507812 55.832031 191.640625 C 55.898438 191.761719 55.96875 191.871094 56.039062 191.988281 C 56.113281 192.117188 56.1875 192.242188 56.269531 192.367188 C 56.355469 192.496094 56.449219 192.617188 56.542969 192.742188 C 56.621094 192.84375 56.691406 192.949219 56.773438 193.050781 C 56.953125 193.269531 57.144531 193.484375 57.347656 193.6875 L 86.574219 222.921875 C 89.957031 226.3125 95.449219 226.3125 98.832031 222.921875 C 102.21875 219.535156 102.21875 214.042969 98.832031 210.65625 L 84.414062 196.222656 L 165.179688 196.222656 C 169.96875 196.222656 173.851562 192.339844 173.851562 187.546875 C 173.851562 182.757812 169.96875 178.875 165.179688 178.875 L 84.410156 178.875 L 98.832031 164.441406 C 102.21875 161.054688 102.21875 155.5625 98.832031 152.175781 C 95.445312 148.785156 89.953125 148.785156 86.570312 152.175781 L 57.347656 181.417969 C 57.144531 181.621094 56.957031 181.832031 56.773438 182.054688 C 56.691406 182.152344 56.625 182.257812 56.546875 182.359375 Z M 56.546875 182.359375 " fill-opacity="1" fill-rule="nonzero"/><path fill="#cfcece" d="M 238.199219 89.570312 L 136.800781 89.570312 C 124.410156 89.570312 114.332031 99.667969 114.332031 112.082031 L 114.332031 154.28125 C 114.332031 159.199219 118.3125 163.183594 123.21875 163.183594 C 128.125 163.183594 132.101562 159.195312 132.101562 154.28125 L 132.101562 112.082031 C 132.101562 109.488281 134.210938 107.375 136.800781 107.375 L 238.203125 107.375 C 240.792969 107.375 242.902344 109.488281 242.902344 112.082031 L 242.902344 262.917969 C 242.902344 265.511719 240.792969 267.625 238.203125 267.625 L 136.800781 267.625 C 134.207031 267.625 132.101562 265.515625 132.101562 262.917969 L 132.101562 220.820312 C 132.101562 215.90625 128.121094 211.921875 123.214844 211.921875 C 118.308594 211.921875 114.328125 215.90625 114.328125 220.820312 L 114.328125 262.917969 C 114.328125 275.332031 124.410156 285.429688 136.796875 285.429688 L 238.199219 285.429688 C 250.585938 285.429688 260.667969 275.332031 260.667969 262.917969 L 260.667969 112.082031 C 260.667969 99.667969 250.589844 89.570312 238.199219 89.570312 Z M 238.199219 89.570312 " fill-opacity="1" fill-rule="nonzero"/><path fill="#cfcece" d="M 238.199219 89.625 L 136.800781 89.625 C 124.410156 89.625 114.332031 99.722656 114.332031 112.136719 L 114.332031 154.335938 C 114.332031 159.25 118.3125 163.234375 123.21875 163.234375 C 128.125 163.234375 132.101562 159.25 132.101562 154.335938 L 132.101562 112.136719 C 132.101562 109.542969 134.210938 107.429688 136.800781 107.429688 L 238.203125 107.429688 C 240.792969 107.429688 242.902344 109.539062 242.902344 112.136719 L 242.902344 262.96875 C 242.902344 265.566406 240.792969 267.679688 238.203125 267.679688 L 136.800781 267.679688 C 134.207031 267.679688 132.101562 265.566406 132.101562 262.96875 L 132.101562 220.875 C 132.101562 215.957031 128.121094 211.972656 123.214844 211.972656 C 118.308594 211.972656 114.328125 215.957031 114.328125 220.875 L 114.328125 262.96875 C 114.328125 275.386719 124.410156 285.484375 136.796875 285.484375 L 238.199219 285.484375 C 250.585938 285.484375 260.667969 275.386719 260.667969 262.96875 L 260.667969 112.136719 C 260.667969 99.722656 250.589844 89.625 238.199219 89.625 Z M 238.199219 89.625 " fill-opacity="1" fill-rule="nonzero"/><path fill="#cfcece" d="M 165.179688 178.929688 L 101.375 178.929688 L 101.375 158.367188 C 101.375 157.847656 101.324219 157.347656 101.234375 156.851562 C 101.226562 156.800781 101.222656 156.75 101.210938 156.695312 C 101.167969 156.484375 101.113281 156.28125 101.058594 156.074219 C 101.039062 156.007812 101.027344 155.9375 101.007812 155.871094 C 100.949219 155.679688 100.878906 155.496094 100.8125 155.3125 C 100.78125 155.230469 100.753906 155.148438 100.722656 155.0625 C 100.652344 154.894531 100.570312 154.734375 100.492188 154.570312 C 100.445312 154.476562 100.40625 154.382812 100.359375 154.292969 C 100.273438 154.136719 100.179688 153.988281 100.089844 153.839844 C 100.03125 153.746094 99.984375 153.652344 99.921875 153.558594 C 99.8125 153.398438 99.695312 153.242188 99.578125 153.09375 C 99.523438 153.019531 99.472656 152.945312 99.414062 152.875 C 99.050781 152.429688 98.640625 152.019531 98.199219 151.65625 C 98.097656 151.578125 97.996094 151.503906 97.894531 151.429688 C 97.769531 151.335938 97.648438 151.242188 97.515625 151.15625 C 97.390625 151.070312 97.257812 150.996094 97.125 150.917969 C 97.015625 150.847656 96.90625 150.78125 96.792969 150.71875 C 96.65625 150.644531 96.515625 150.582031 96.375 150.515625 C 96.257812 150.464844 96.144531 150.402344 96.023438 150.355469 C 95.886719 150.296875 95.746094 150.25 95.609375 150.203125 C 95.480469 150.15625 95.351562 150.105469 95.222656 150.066406 C 95.082031 150.023438 94.941406 149.996094 94.796875 149.957031 C 94.664062 149.925781 94.535156 149.886719 94.398438 149.859375 C 94.234375 149.828125 94.074219 149.808594 93.90625 149.785156 C 93.792969 149.769531 93.675781 149.746094 93.558594 149.734375 C 93.273438 149.707031 92.988281 149.691406 92.699219 149.691406 C 92.683594 149.691406 92.667969 149.695312 92.652344 149.695312 C 92.382812 149.695312 92.113281 149.710938 91.847656 149.734375 C 91.695312 149.75 91.546875 149.777344 91.398438 149.800781 C 91.269531 149.820312 91.140625 149.832031 91.015625 149.859375 C 90.839844 149.890625 90.671875 149.9375 90.5 149.984375 C 90.398438 150.007812 90.296875 150.03125 90.195312 150.0625 C 90.019531 150.113281 89.847656 150.179688 89.675781 150.242188 C 89.585938 150.277344 89.492188 150.308594 89.398438 150.34375 C 89.222656 150.417969 89.054688 150.5 88.882812 150.585938 C 88.800781 150.625 88.71875 150.660156 88.636719 150.703125 C 88.445312 150.804688 88.265625 150.917969 88.082031 151.03125 C 88.027344 151.066406 87.96875 151.097656 87.914062 151.132812 C 87.402344 151.472656 86.933594 151.859375 86.503906 152.296875 L 57.351562 181.472656 C 57.148438 181.675781 56.957031 181.886719 56.773438 182.109375 C 56.695312 182.207031 56.625 182.308594 56.546875 182.414062 C 56.453125 182.535156 56.355469 182.660156 56.269531 182.789062 C 56.1875 182.914062 56.117188 183.042969 56.042969 183.167969 C 55.972656 183.28125 55.898438 183.398438 55.832031 183.515625 C 55.765625 183.648438 55.707031 183.78125 55.644531 183.914062 C 55.585938 184.035156 55.523438 184.160156 55.46875 184.289062 C 55.417969 184.414062 55.375 184.546875 55.328125 184.675781 C 55.277344 184.8125 55.226562 184.949219 55.183594 185.089844 C 55.144531 185.21875 55.117188 185.351562 55.082031 185.484375 C 55.046875 185.625 55.003906 185.765625 54.976562 185.910156 C 54.945312 186.0625 54.929688 186.214844 54.90625 186.367188 C 54.890625 186.496094 54.863281 186.621094 54.851562 186.75 C 54.796875 187.316406 54.796875 187.890625 54.851562 188.460938 C 54.867188 188.589844 54.890625 188.71875 54.90625 188.84375 C 54.929688 189 54.945312 189.148438 54.976562 189.300781 C 55.007812 189.445312 55.046875 189.585938 55.082031 189.730469 C 55.117188 189.859375 55.144531 189.992188 55.183594 190.121094 C 55.222656 190.261719 55.277344 190.398438 55.328125 190.535156 C 55.375 190.664062 55.417969 190.792969 55.46875 190.921875 C 55.523438 191.050781 55.585938 191.171875 55.640625 191.296875 C 55.703125 191.429688 55.761719 191.5625 55.832031 191.695312 C 55.898438 191.8125 55.96875 191.925781 56.039062 192.042969 C 56.113281 192.171875 56.1875 192.296875 56.269531 192.421875 C 56.355469 192.550781 56.449219 192.671875 56.542969 192.796875 C 56.621094 192.898438 56.691406 193.003906 56.773438 193.105469 C 56.953125 193.324219 57.144531 193.539062 57.347656 193.738281 L 86.507812 222.910156 C 86.933594 223.347656 87.402344 223.734375 87.914062 224.074219 C 87.96875 224.109375 88.027344 224.140625 88.082031 224.175781 C 88.265625 224.292969 88.449219 224.402344 88.640625 224.503906 C 88.71875 224.546875 88.804688 224.582031 88.886719 224.621094 C 89.058594 224.707031 89.226562 224.789062 89.402344 224.863281 C 89.496094 224.902344 89.589844 224.929688 89.683594 224.964844 C 89.855469 225.027344 90.023438 225.089844 90.199219 225.144531 C 90.300781 225.179688 90.40625 225.199219 90.511719 225.226562 C 90.679688 225.269531 90.847656 225.316406 91.019531 225.351562 C 91.148438 225.375 91.28125 225.390625 91.410156 225.410156 C 91.558594 225.433594 91.703125 225.460938 91.855469 225.472656 C 92.121094 225.5 92.390625 225.511719 92.660156 225.515625 C 92.671875 225.515625 92.691406 225.515625 92.707031 225.515625 C 92.996094 225.515625 93.28125 225.503906 93.566406 225.472656 C 93.683594 225.464844 93.792969 225.441406 93.90625 225.425781 C 94.074219 225.402344 94.242188 225.382812 94.40625 225.347656 C 94.539062 225.324219 94.667969 225.285156 94.796875 225.253906 C 94.941406 225.21875 95.085938 225.183594 95.226562 225.140625 C 95.355469 225.101562 95.484375 225.054688 95.609375 225.007812 C 95.75 224.957031 95.890625 224.914062 96.027344 224.855469 C 96.144531 224.808594 96.257812 224.75 96.375 224.691406 C 96.515625 224.625 96.65625 224.566406 96.792969 224.488281 C 96.90625 224.429688 97.015625 224.359375 97.125 224.292969 C 97.257812 224.214844 97.390625 224.140625 97.519531 224.054688 C 97.648438 223.96875 97.769531 223.871094 97.894531 223.777344 C 97.996094 223.703125 98.101562 223.632812 98.199219 223.550781 C 98.644531 223.1875 99.050781 222.78125 99.417969 222.335938 C 99.472656 222.265625 99.523438 222.191406 99.578125 222.117188 C 99.695312 221.964844 99.8125 221.808594 99.921875 221.648438 C 99.984375 221.554688 100.035156 221.460938 100.09375 221.367188 C 100.183594 221.21875 100.277344 221.070312 100.359375 220.917969 C 100.410156 220.824219 100.453125 220.730469 100.496094 220.636719 C 100.578125 220.476562 100.65625 220.3125 100.726562 220.144531 C 100.757812 220.0625 100.785156 219.980469 100.816406 219.894531 C 100.882812 219.710938 100.953125 219.527344 101.011719 219.339844 C 101.03125 219.273438 101.042969 219.203125 101.0625 219.136719 C 101.117188 218.929688 101.171875 218.722656 101.214844 218.515625 C 101.226562 218.460938 101.230469 218.410156 101.238281 218.359375 C 101.324219 217.867188 101.378906 217.359375 101.378906 216.84375 L 101.378906 196.28125 L 165.183594 196.28125 C 169.972656 196.28125 173.855469 192.398438 173.855469 187.605469 C 173.847656 182.8125 169.96875 178.929688 165.179688 178.929688 Z M 165.179688 178.929688 " fill-opacity="1" fill-rule="nonzero"/></svg>