<svg xmlns="http://www.w3.org/2000/svg" xmlns:xlink="http://www.w3.org/1999/xlink" width="500" zoomAndPan="magnify" viewBox="0 0 375 374.999991" height="500" preserveAspectRatio="xMidYMid meet" version="1.0"><defs><clipPath id="id1"><path d="M 182 17.527344 L 266 17.527344 L 266 38 L 182 38 Z M 182 17.527344 " clip-rule="nonzero"/></clipPath></defs><path fill="#cfcece" d="M 193.25 183.523438 C 184.484375 183.523438 177.390625 176.421875 177.390625 167.671875 C 177.390625 158.925781 184.484375 151.835938 193.25 151.835938 C 202 151.835938 209.09375 158.925781 209.09375 167.671875 C 209.09375 176.421875 202 183.523438 193.25 183.523438 Z M 371.667969 87.675781 C 369.628906 78.574219 366.34375 69.753906 361.949219 61.527344 C 357.800781 53.78125 352.625 46.523438 346.375 40.324219 C 339.695312 33.738281 326.539062 22.109375 317.089844 30.382812 C 313.929688 33.152344 312.097656 37.089844 310.265625 40.863281 C 292.601562 77.242188 266.1875 109.34375 233.886719 133.683594 C 226.160156 139.503906 217.210938 145.820312 212.5 154.582031 C 208.300781 148.433594 201.246094 144.394531 193.25 144.394531 C 191.648438 144.394531 190.085938 144.554688 188.585938 144.859375 C 188.804688 143.089844 188.78125 141.246094 188.269531 139.296875 C 186.851562 133.914062 184.472656 128.59375 182.433594 123.421875 C 179.992188 117.222656 177.355469 111.101562 174.511719 105.085938 C 173.058594 102.023438 171.546875 98.984375 169.984375 95.984375 C 162.609375 81.917969 153.808594 68.386719 142.710938 56.941406 C 134.449219 48.402344 124.792969 41.019531 113.804688 36.335938 C 104.734375 32.46875 94.886719 30.5625 85.023438 31.003906 C 75.695312 31.429688 66.554688 33.871094 58.117188 37.785156 C 49.597656 41.738281 41.796875 47.15625 34.886719 53.511719 C 28.027344 59.820312 22.007812 67.082031 17.089844 75 C 12.464844 82.464844 8.742188 90.566406 6.507812 99.082031 C 4.136719 108.148438 0.636719 125.351562 12.535156 129.398438 C 16.503906 130.742188 20.835938 130.363281 25.023438 130.058594 C 65.382812 127.15625 106.410156 133.976562 143.652344 149.761719 C 152.476562 153.507812 162.328125 158.058594 172.191406 157.839844 C 170.789062 160.839844 169.945312 164.148438 169.945312 167.671875 C 169.945312 173.726562 172.3125 179.191406 176.097656 183.328125 C 174.414062 184.023438 172.777344 184.984375 171.3125 186.4375 C 167.359375 190.355469 163.941406 195.074219 160.472656 199.429688 C 156.335938 204.640625 152.34375 209.984375 148.546875 215.460938 C 146.628906 218.246094 144.75 221.0625 142.933594 223.929688 C 134.4375 237.339844 127.097656 251.734375 122.730469 267.046875 C 119.46875 278.476562 117.894531 290.519531 119.335938 302.378906 C 120.519531 312.164062 123.804688 321.644531 129.113281 329.964844 C 134.128906 337.808594 140.820312 344.496094 148.4375 349.851562 C 156.128906 355.242188 164.722656 359.292969 173.667969 362.101562 C 182.566406 364.882812 191.871094 366.457031 201.183594 366.761719 C 209.972656 367.027344 218.859375 366.199219 227.355469 363.871094 C 236.390625 361.390625 253.050781 355.816406 250.609375 343.507812 C 249.792969 339.382812 247.289062 335.832031 244.933594 332.355469 C 222.242188 298.878906 207.640625 259.957031 202.699219 219.832031 C 201.511719 210.191406 200.511719 199.25 195.214844 190.769531 C 204.699219 189.953125 212.5 183.535156 215.320312 174.785156 C 216.808594 175.992188 218.542969 176.96875 220.640625 177.542969 C 226.011719 179.007812 231.8125 179.617188 237.316406 180.433594 C 243.910156 181.410156 250.523438 182.191406 257.164062 182.742188 C 260.546875 183.007812 263.929688 183.230469 267.308594 183.363281 C 283.191406 184.023438 299.316406 183.167969 314.78125 179.289062 C 326.316406 176.398438 337.535156 171.734375 347.09375 164.574219 C 354.980469 158.65625 361.546875 151.070312 366.101562 142.308594 C 370.398438 134.046875 372.851562 124.910156 373.667969 115.652344 C 374.511719 106.292969 373.71875 96.824219 371.667969 87.675781 " fill-opacity="1" fill-rule="nonzero"/><g clip-path="url(#id1)"><path fill="#cfcece" d="M 190.222656 24.257812 C 191.6875 23.550781 193.519531 23.160156 195.410156 22.511719 C 197.328125 21.902344 199.378906 21.207031 201.660156 20.902344 C 203.929688 20.546875 206.261719 19.863281 208.765625 19.828125 C 211.253906 19.707031 213.804688 19.351562 216.417969 19.597656 C 219.03125 19.667969 221.667969 19.816406 224.265625 20.304688 C 226.890625 20.585938 229.457031 21.253906 231.96875 21.878906 C 234.496094 22.476562 236.878906 23.414062 239.207031 24.183594 C 241.480469 25.171875 243.726562 25.964844 245.714844 27.039062 C 247.753906 28.003906 249.632812 29.027344 251.316406 30.039062 C 258.179688 34.027344 261.890625 37.507812 261.890625 37.507812 L 265.222656 33.554688 C 265.222656 33.554688 264.953125 33.347656 264.429688 32.941406 C 263.878906 32.527344 263.085938 31.953125 262.074219 31.285156 C 260.058594 29.90625 257.117188 28.074219 253.417969 26.207031 C 251.574219 25.257812 249.546875 24.304688 247.351562 23.414062 C 245.203125 22.414062 242.785156 21.730469 240.367188 20.839844 C 237.878906 20.179688 235.339844 19.351562 232.679688 18.886719 C 230.015625 18.398438 227.320312 17.863281 224.574219 17.730469 C 221.851562 17.398438 219.105469 17.398438 216.417969 17.496094 C 213.71875 17.410156 211.109375 17.925781 208.570312 18.207031 C 206.019531 18.398438 203.660156 19.230469 201.390625 19.730469 C 199.097656 20.179688 197.046875 21.011719 195.152344 21.742188 C 193.273438 22.511719 191.480469 23.011719 190.027344 23.816406 C 188.574219 24.585938 187.304688 25.246094 186.253906 25.792969 C 184.179688 26.890625 182.984375 27.515625 182.984375 27.515625 C 182.984375 27.515625 184.214844 26.964844 186.363281 26 C 187.425781 25.511719 188.734375 24.925781 190.222656 24.257812 " fill-opacity="1" fill-rule="nonzero"/></g><path fill="#cfcece" d="M 88.257812 239.242188 C 86.964844 238.230469 85.804688 236.765625 84.386719 235.363281 C 82.984375 233.921875 81.457031 232.382812 80.164062 230.480469 C 78.84375 228.601562 77.199219 226.820312 76.0625 224.589844 C 74.839844 222.417969 73.402344 220.28125 72.460938 217.828125 C 71.363281 215.460938 70.324219 213.035156 69.605469 210.496094 C 68.6875 208.007812 68.164062 205.421875 67.601562 202.894531 C 67.015625 200.371094 66.808594 197.808594 66.457031 195.378906 C 66.34375 192.917969 66.050781 190.550781 66.136719 188.292969 C 66.101562 186.035156 66.175781 183.898438 66.332031 181.949219 C 66.871094 174.03125 68.347656 169.148438 68.347656 169.148438 L 63.332031 167.929688 C 63.332031 167.929688 63.257812 168.257812 63.136719 168.90625 C 63 169.589844 62.84375 170.550781 62.683594 171.75 C 62.339844 174.175781 62.011719 177.617188 61.976562 181.765625 C 61.9375 183.828125 61.988281 186.070312 62.160156 188.425781 C 62.21875 190.792969 62.671875 193.269531 62.953125 195.820312 C 63.464844 198.34375 63.84375 200.992188 64.613281 203.589844 C 65.355469 206.191406 66.066406 208.835938 67.164062 211.351562 C 68.066406 213.949219 69.289062 216.402344 70.570312 218.769531 C 71.691406 221.222656 73.316406 223.332031 74.695312 225.480469 C 75.988281 227.6875 77.785156 229.417969 79.234375 231.238281 C 80.664062 233.09375 82.3125 234.554688 83.8125 235.933594 C 85.339844 237.277344 86.585938 238.667969 87.953125 239.59375 C 89.28125 240.570312 90.441406 241.414062 91.394531 242.097656 C 93.296875 243.488281 94.386719 244.269531 94.386719 244.269531 C 94.386719 244.269531 93.347656 243.414062 91.527344 241.925781 C 90.613281 241.179688 89.515625 240.277344 88.257812 239.242188 " fill-opacity="1" fill-rule="nonzero"/><path fill="#cfcece" d="M 318.761719 223.574219 C 318.359375 225.160156 317.492188 226.808594 316.773438 228.675781 C 316.015625 230.53125 315.234375 232.554688 314.011719 234.507812 C 312.828125 236.472656 311.851562 238.691406 310.265625 240.644531 C 308.777344 242.632812 307.410156 244.816406 305.542969 246.660156 C 303.820312 248.625 302.015625 250.550781 299.976562 252.234375 C 298.082031 254.066406 295.921875 255.601562 293.835938 257.128906 C 291.761719 258.675781 289.5 259.910156 287.414062 261.203125 C 285.203125 262.3125 283.152344 263.53125 281.054688 264.375 C 279.003906 265.3125 277.027344 266.09375 275.160156 266.742188 C 267.699219 269.449219 262.632812 270.058594 262.632812 270.058594 L 263.550781 275.160156 C 263.550781 275.160156 263.878906 275.074219 264.527344 274.941406 C 265.199219 274.78125 266.148438 274.539062 267.308594 274.195312 C 269.664062 273.535156 272.949219 272.449219 276.757812 270.804688 C 278.660156 270.011719 280.699219 269.058594 282.789062 267.949219 C 284.925781 266.9375 287.011719 265.519531 289.234375 264.238281 C 291.34375 262.75 293.601562 261.335938 295.667969 259.578125 C 297.753906 257.859375 299.890625 256.140625 301.757812 254.113281 C 303.757812 252.234375 305.503906 250.136719 307.164062 248 C 308.949219 245.988281 310.242188 243.65625 311.644531 241.535156 C 313.132812 239.449219 314 237.105469 315.085938 235.042969 C 316.199219 232.996094 316.882812 230.894531 317.527344 228.96875 C 318.140625 227.027344 318.910156 225.332031 319.214844 223.710938 C 319.566406 222.101562 319.871094 220.707031 320.117188 219.550781 C 320.617188 217.242188 320.898438 215.9375 320.898438 215.9375 C 320.898438 215.9375 320.53125 217.230469 319.898438 219.5 C 319.578125 220.625 319.203125 222.003906 318.761719 223.574219 " fill-opacity="1" fill-rule="nonzero"/></svg>