<svg xmlns="http://www.w3.org/2000/svg" xmlns:xlink="http://www.w3.org/1999/xlink" width="500" zoomAndPan="magnify" viewBox="0 0 375 374.999991" height="500" preserveAspectRatio="xMidYMid meet" version="1.0"><defs><clipPath id="id1"><path d="M 1.28125 0 L 373.898438 0 L 373.898438 374.820312 L 1.28125 374.820312 Z M 1.28125 0 " clip-rule="nonzero"/></clipPath></defs><g clip-path="url(#id1)"><path fill="#ed1d24" d="M 187.707031 270.414062 C 199.71875 270.578125 209.363281 280.457031 209.230469 292.46875 C 209.230469 292.703125 209.230469 292.933594 209.230469 293.136719 C 209.730469 305.179688 200.453125 315.359375 188.40625 315.890625 C 176.394531 316.425781 166.152344 307.117188 165.652344 295.070312 C 165.585938 294.4375 165.585938 293.804688 165.652344 293.136719 C 165.117188 281.125 174.460938 270.945312 186.503906 270.445312 C 186.90625 270.414062 187.273438 270.414062 187.707031 270.414062 Z M 186.640625 69.570312 C 187.171875 69.539062 187.742188 69.539062 188.273438 69.570312 C 201.753906 69.972656 212.332031 81.25 211.964844 94.730469 C 211.964844 94.964844 211.898438 95.230469 211.898438 95.464844 L 204.390625 225.898438 L 204.324219 225.898438 C 203.625 235.175781 195.480469 242.050781 186.171875 241.316406 C 177.996094 240.648438 171.457031 234.140625 170.789062 225.898438 L 163.148438 95.464844 C 162.3125 82.019531 172.589844 70.4375 186.039062 69.605469 C 186.273438 69.605469 186.503906 69.570312 186.773438 69.570312 Z M 182.800781 0.0664062 C 81.53125 2.667969 0.914062 85.722656 1.28125 187.027344 C 0.445312 289.933594 83.164062 373.984375 186.070312 374.820312 C 288.976562 375.652344 373.066406 292.902344 373.898438 190.027344 C 373.898438 189.027344 373.898438 188.027344 373.898438 187.027344 C 374.300781 84.152344 291.148438 0.402344 188.308594 0.0351562 C 186.503906 0 184.671875 0.0351562 182.867188 0.0664062 L 182.800781 0.0664062 " fill-opacity="1" fill-rule="nonzero"/></g></svg>